<svg width="34" height="26" viewBox="0 0 34 26" fill="none" xmlns="http://www.w3.org/2000/svg">
<path d="M18.7224 4.14856C16.9413 3.17369 15.0864 3.94305 14.707 4.12221C14.2907 4.16437 12.3041 4.45946 11.2765 6.20895C10.1541 8.12179 13.4001 7.24178 15.3446 6.73063C15.3709 6.72536 15.3973 6.71482 15.4236 6.70955C15.45 6.70428 15.4763 6.69374 15.5027 6.68847C17.4261 6.12463 20.6668 5.20773 18.7224 4.14856Z" fill="#F8D21E"/>
<path d="M16.4403 4.51757C16.572 4.9971 16.0029 5.57675 15.1703 5.80861C14.3377 6.04047 13.5525 5.83496 13.4208 5.35543C13.2891 4.8759 13.8582 4.29625 14.6908 4.06439C15.5181 3.83253 16.3032 4.03278 16.4403 4.51757Z" fill="#F9ED43"/>
<path d="M32.876 8.15893C32.8233 7.96396 32.7601 7.77426 32.6811 7.58455L32.6389 7.47916C32.5757 7.32634 32.5072 7.1788 32.4334 7.03652L32.386 6.94694C32.3017 6.78885 32.2121 6.63603 32.0909 6.4516C30.6154 4.19624 27.6381 2.74185 23.7176 2.34663C20.8878 2.041 17.684 2.34663 14.459 3.24245C11.2182 4.13828 8.29892 5.52943 6.03302 7.25257C2.88711 9.60278 1.0902 12.3798 0.979535 15.1042C0.974266 15.2833 0.974266 15.4625 0.984805 15.6522L0.990074 15.7365C1.00061 15.8999 1.02169 16.0632 1.04277 16.2266L1.05858 16.3425C1.0902 16.5375 1.13235 16.7325 1.18505 16.9274C1.21666 17.0381 1.25355 17.1488 1.29044 17.2594C1.31679 17.3912 1.3484 17.5176 1.38529 17.6494C2.19153 20.574 3.91994 22.7924 6.38608 24.0729C6.59159 24.1783 6.80237 24.2784 7.02369 24.3733C9.94302 25.638 13.8109 25.7328 18.564 24.6473L18.7221 24.6104C19.2174 24.4945 19.7285 24.368 20.2555 24.2205C20.6771 24.1045 21.0881 23.9833 21.4833 23.8622C22.4055 23.5776 23.2749 23.272 24.155 22.9189L24.4501 22.803C31.7747 19.7783 34.7573 14.9672 33.0763 8.8914C33.0394 8.75966 32.9972 8.63319 32.9551 8.50672C32.934 8.38552 32.9077 8.27486 32.876 8.15893Z" fill="#8E381E"/>
<path d="M31.8172 8.86485C32.8079 12.4534 33.1188 19.0456 19.8448 22.7132C6.81328 26.3176 3.45131 20.5738 2.45537 16.9799C0.969364 11.6103 6.57615 6.29859 14.686 4.05904C22.7958 1.81948 30.3312 3.4952 31.8172 8.86485Z" fill="#F47920"/>
<path d="M16.8041 23.4196C17.7579 23.2405 18.7644 23.0139 19.8446 22.7135C20.6667 22.4869 21.4308 22.2498 22.1527 22.0021L21.4097 19.3094L22.3108 18.7877L23.1065 21.6596C23.586 21.4804 24.0339 21.2907 24.466 21.101L23.5386 17.7549L16.0137 20.5267L16.8041 23.4196Z" fill="#FAAD1B"/>
<path d="M9.5059 20.7796C8.94206 19.4727 5.07422 19.0828 5.07422 19.0828L6.32837 22.3657C6.66562 22.5712 7.02395 22.7556 7.41916 22.9295L6.11759 19.8416L7.11353 20.0418L8.59427 23.3511C9.25823 23.5461 9.99596 23.6936 10.8075 23.7779L9.5059 20.7796Z" fill="#FAAD1B"/>
<path d="M19.185 20.3425C27.2941 18.1003 32.8599 12.6376 31.6166 8.14131C30.3734 3.64501 22.7918 1.81772 14.6827 4.05995C6.57369 6.30218 1.00787 11.7648 2.25114 16.2612C3.49441 20.7575 11.076 22.5847 19.185 20.3425Z" fill="#FAAD1B"/>
<path d="M30.7055 6.37769C30.8425 6.6517 30.9531 6.93626 31.0374 7.23135C32.2547 11.6314 26.806 16.98 18.8648 19.1774C10.9236 21.3748 3.50413 19.5831 2.28686 15.1831C2.20255 14.888 2.15512 14.5824 2.13405 14.282C2.04446 14.9565 2.08135 15.6205 2.25525 16.2633C3.49886 20.7582 11.0817 22.5868 19.1863 20.342C27.2961 18.1024 32.8607 12.6379 31.6171 8.14298C31.4432 7.5001 31.127 6.90991 30.7055 6.37769Z" fill="#F8D21E"/>
<path d="M18.5334 17.9713C24.3845 16.3534 28.4003 12.411 27.5029 9.16571C26.6056 5.92041 21.1349 4.60112 15.2838 6.219C9.4327 7.83688 5.41691 11.7793 6.31426 15.0246C7.21162 18.2699 12.6823 19.5892 18.5334 17.9713Z" fill="#8E381E"/>
<path d="M18.4572 17.7021C23.621 16.2742 27.1816 12.8542 26.4099 10.0633C25.6382 7.27239 20.8264 6.16743 15.6625 7.59529C10.4987 9.02315 6.9381 12.4431 7.70981 15.234C8.48152 18.025 13.2933 19.1299 18.4572 17.7021Z" fill="#F8D21E"/>
<path d="M24.6767 9.9713C25.3196 12.2899 22.3581 15.1249 18.074 16.3106C13.7898 17.4962 9.79025 16.5793 9.15263 14.266C8.50975 11.9474 11.4712 9.11237 15.7554 7.92672C20.0448 6.74108 24.0391 7.65798 24.6767 9.9713Z" fill="#FAAD1B"/>
<path d="M20.1237 19.3933C20.2238 19.7463 19.8023 20.1732 19.191 20.3418C18.5797 20.5104 18.0001 20.3629 17.9 20.0045C17.7999 19.6515 18.2214 19.2246 18.8327 19.056C19.4492 18.8874 20.0236 19.0402 20.1237 19.3933Z" fill="#F9ED43"/>
<path d="M19.3649 16.6478C19.465 17.0009 19.0435 17.4277 18.4322 17.5963C17.821 17.765 17.2413 17.6174 17.1412 17.2591C17.0411 16.906 17.4626 16.4792 18.0739 16.3106C18.6904 16.1472 19.2648 16.2948 19.3649 16.6478Z" fill="#F9ED43"/>
<path d="M19.7394 7.82702C17.9583 6.85216 16.1034 7.62151 15.724 7.80068C15.3077 7.84283 13.3211 8.13793 12.2882 9.88741C11.1658 11.8003 14.4119 10.9202 16.3563 10.4091C16.3827 10.4038 16.409 10.3933 16.4354 10.388C16.4617 10.3827 16.4881 10.3722 16.5144 10.3669C18.4483 9.80837 21.6838 8.89147 19.7394 7.82702Z" fill="#F8D21E"/>
<path d="M17.4573 8.20078C17.5891 8.68031 17.02 9.25995 16.1874 9.49181C15.3548 9.72367 14.5696 9.51816 14.4379 9.03863C14.3062 8.55911 14.8753 7.97946 15.7079 7.7476C16.5404 7.51047 17.3203 7.71598 17.4573 8.20078Z" fill="#F9ED43"/>
<path d="M13.7797 5.20789L16.0877 6.92048C16.151 6.96791 16.2405 6.96791 16.3038 6.92048L18.6118 5.20789C18.7805 5.08669 18.986 5.2922 18.8648 5.46082L17.1522 7.76888C17.1047 7.83211 17.1047 7.92169 17.1522 7.98493L18.8648 10.293C18.986 10.4616 18.7805 10.6671 18.6118 10.5459L16.3038 8.83332C16.2405 8.7859 16.151 8.7859 16.0877 8.83332L13.7797 10.5459C13.611 10.6671 13.4055 10.4616 13.5267 10.293L15.2393 7.98493C15.2868 7.92169 15.2868 7.83211 15.2393 7.76888L13.5267 5.46082C13.4055 5.2922 13.6163 5.08669 13.7797 5.20789Z" fill="white"/>
<path d="M20.4511 17.0539L20.7199 18.8561C20.7251 18.9035 20.7673 18.9456 20.8147 18.9509L22.6169 19.2197C22.7487 19.2407 22.7487 19.4252 22.6169 19.4462L20.8147 19.715C20.7673 19.7203 20.7251 19.7624 20.7199 19.8098L20.4511 21.612C20.4301 21.7438 20.2456 21.7438 20.2245 21.612L19.9558 19.8098C19.9505 19.7624 19.9084 19.7203 19.8609 19.715L18.0588 19.4462C17.927 19.4252 17.927 19.2407 18.0588 19.2197L19.8609 18.9509C19.9084 18.9456 19.9505 18.9035 19.9558 18.8561L20.2245 17.0539C20.2456 16.9221 20.4301 16.9221 20.4511 17.0539Z" fill="white"/>
</svg>
