<svg width="75" height="67" viewBox="0 0 75 67" fill="none" xmlns="http://www.w3.org/2000/svg">
<path d="M74.0814 23.5469C74.0954 23.3092 74.1094 23.0856 74.1094 22.8479C74.1094 10.5324 64.1004 0.523438 51.7849 0.523438C46.5148 0.523438 41.4823 2.36865 37.5123 5.68168C33.5283 2.36865 28.5098 0.523438 23.2397 0.523438C11.036 0.523438 1.09692 10.3507 0.915194 22.5124C0.579697 24.777 0.11839 33.4021 9.66606 45.7735C18.9481 57.8095 32.7035 65.3861 36.1004 66.2948C36.5477 66.4206 36.9951 66.4765 37.4424 66.4765C37.8897 66.4765 38.351 66.4206 38.7983 66.2948C42.1953 65.3861 55.9506 57.8095 65.2327 45.7875C73.676 34.8279 74.2771 26.762 74.0814 23.5469Z" fill="#982E33"/>
<path d="M70.3209 21.6876C70.3209 11.4549 62.0314 3.15137 51.7848 3.15137C46.0394 3.15137 40.9091 5.76544 37.5122 9.87527C34.1153 5.76544 28.985 3.15137 23.2396 3.15137C13.0069 3.15137 4.70339 11.4409 4.70339 21.6876C4.70339 21.6876 2.9001 29.6416 12.6714 42.2926C21.7997 54.1329 35.1637 61.0525 37.0928 61.4579C37.2046 61.4858 37.3165 61.5138 37.4562 61.5138C37.5821 61.5138 37.7079 61.4998 37.8197 61.4579C39.7488 61.0525 53.1128 54.1189 62.2411 42.2926C70.279 31.8643 70.4747 24.6371 70.293 22.4145C70.293 22.1768 70.3209 21.9392 70.3209 21.6876Z" fill="#C2151C"/>
<path d="M37.6381 53.0984C39.3715 52.735 51.4214 46.4863 59.655 35.8203C66.9102 26.4264 67.0779 19.8982 66.9102 17.8992C66.9241 17.6756 66.9381 17.4659 66.9381 17.2422C66.9381 13.7335 65.8478 10.4764 63.9885 7.77842C60.7314 4.91272 56.4539 3.15137 51.7709 3.15137C46.0255 3.15137 40.8952 5.76544 37.4983 9.87528C34.1014 5.76544 28.9711 3.15137 23.2257 3.15137C18.2352 3.15137 13.706 5.13639 10.379 8.35157C8.75743 10.9237 7.80685 13.9711 7.80685 17.2422C7.80685 17.2422 6.18528 24.4135 14.9781 35.8203C23.2117 46.4863 35.2477 52.735 36.9951 53.0984C37.0929 53.1264 37.2047 53.1404 37.3166 53.1404C37.4424 53.1404 37.5402 53.1264 37.6381 53.0984Z" fill="#ED1C24"/>
<path d="M44.7113 47.9402C38.3648 51.2392 35.6249 51.7425 25.56 44.8228C15.5511 37.9452 8.89704 24.9866 8.82715 24.8468C9.81966 27.7964 11.6649 31.5008 14.9919 35.8203C23.2255 46.4863 35.2615 52.735 37.0089 53.0984C37.1067 53.1264 37.2185 53.1404 37.3304 53.1404C37.4422 53.1404 37.554 53.1264 37.6519 53.0984C39.3853 52.735 51.4352 46.4863 59.6689 35.8203C59.6549 35.8203 51.0578 44.6411 44.7113 47.9402Z" fill="#F58872"/>
<path d="M62.6186 15.8724C61.053 19.479 56.2163 20.849 51.8129 18.9338C47.4234 17.0187 45.1309 12.5454 46.6965 8.93882C48.2622 5.33223 53.0989 3.96228 57.5023 5.87741C61.9057 7.79254 64.1983 12.2658 62.6186 15.8724Z" fill="#F36F5F"/>
<mask id="mask0_11_46" style="mask-type:alpha" maskUnits="userSpaceOnUse" x="37" y="6" width="9" height="9">
<path d="M37.8618 10.7281C37.9038 13.6218 38.407 15.6068 40.5877 14.4605C42.7685 13.3142 46.2912 8.64526 45.6621 6.85594C45.0331 5.08061 41.4544 6.39462 37.8618 10.7281Z" fill="url(#paint0_linear_11_46)"/>
</mask>
<g mask="url(#mask0_11_46)">
<path d="M37.8618 10.7281C37.9038 13.6218 38.407 15.6068 40.5877 14.4605C42.7685 13.3142 46.2912 8.64526 45.6621 6.85594C45.0331 5.08061 41.4544 6.39462 37.8618 10.7281Z" fill="url(#paint1_linear_11_46)"/>
<path d="M36.4221 19.4932C34.2833 24.3999 27.6991 26.2731 21.7021 23.659C15.7051 21.0449 12.5878 14.95 14.7266 10.0434C16.8654 5.13677 23.4495 3.26357 29.4465 5.87765C35.4295 8.49172 38.5608 14.5726 36.4221 19.4932Z" fill="#F36F5F"/>
</g>
<defs>
<linearGradient id="paint0_linear_11_46" x1="38.1604" y1="9.5018" x2="44.8775" y2="11.1375" gradientUnits="userSpaceOnUse">
<stop stop-color="white"/>
<stop offset="1"/>
</linearGradient>
<linearGradient id="paint1_linear_11_46" x1="38.1604" y1="9.5018" x2="44.8775" y2="11.1375" gradientUnits="userSpaceOnUse">
<stop stop-color="#C2151C"/>
<stop offset="1" stop-color="#C2151C"/>
</linearGradient>
</defs>
</svg>
