<svg width="56" height="45" viewBox="0 0 56 45" fill="none" xmlns="http://www.w3.org/2000/svg">
<path d="M48.9663 19.6299C48.9217 17.5812 48.312 15.7003 47.4851 13.8407C46.8949 12.5133 46.198 11.3056 45.1159 10.414C45.1159 10.4036 45.1159 10.395 45.1159 10.3847C44.9328 8.93217 44.801 7.46504 44.5557 6.0217C44.3549 4.84079 43.932 3.63547 42.9287 2.90007C40.7725 1.31942 37.6686 3.44933 35.8377 4.64123C35.3214 4.54297 34.8002 4.46302 34.2876 4.33059C33.5143 4.13103 32.749 3.92719 31.9563 3.81795C30.99 3.68108 30.0108 3.66059 29.0397 3.75692C28.9935 3.71758 28.9373 3.69181 28.8774 3.68246C28.5736 3.63106 28.2668 3.59966 27.9589 3.58848C26.6907 1.75761 24.717 0.396662 22.4278 0.742696H22.4205C22.39 0.747578 22.3595 0.750628 22.3296 0.75612C22.2861 0.761251 22.2443 0.776161 22.2074 0.799732C22.1706 0.823302 22.1395 0.854919 22.1166 0.892214C21.4288 1.0039 20.8038 1.29317 20.3467 1.93825C19.5735 3.03128 19.0529 4.31838 18.5311 5.56582C18.2193 6.087 17.9471 6.63382 17.8891 7.15867C17.8854 7.19515 17.8912 7.23197 17.9062 7.26547C15.166 9.63767 12.6687 12.2509 11.4267 15.7485C10.7365 17.6941 10.3502 19.8661 10.6144 21.9289C10.8586 23.833 11.7361 25.5699 12.6943 27.2116C10.6157 28.7147 15.9661 32.4094 17.1763 33.0093C17.5632 33.9498 17.4503 35.1758 17.6303 36.1456C17.8378 37.2679 18.1875 38.3902 18.7966 39.3636C19.3902 40.3024 20.2217 41.0673 21.2066 41.5808C22.1025 42.0538 23.3133 42.5634 24.335 42.578C24.3405 42.578 24.3453 42.578 24.3502 42.578C24.6346 43.5313 25.2571 44.7177 26.3208 44.6799C27.5921 44.6341 27.6513 43.5002 27.467 42.5243C28.4074 42.7172 29.3778 42.661 30.3396 42.6745C30.3366 42.8624 30.292 43.0693 30.3286 43.2402C30.3515 43.34 30.384 43.4372 30.4257 43.5307C30.4172 43.5598 30.4155 43.5905 30.4208 43.6204C30.469 43.8731 30.5361 44.1416 30.7375 44.3198C30.8621 44.4364 31.0277 44.4989 31.1983 44.4937C31.34 44.5617 31.4978 44.589 31.6542 44.5725C32.6624 44.4736 32.8046 43.2506 32.771 42.3998C36.982 42.835 39.6453 38.3109 39.6673 34.5204C39.8443 33.987 40.6779 33.8747 41.1283 33.7459L42.5973 33.3261C43.3559 33.1094 44.2298 32.9562 44.8596 32.4478C45.5407 31.8986 45.7043 30.9117 45.2349 30.2862C45.8831 29.7864 46.4866 28.9143 46.757 28.5402C47.3673 27.7004 47.8299 26.7892 48.0099 25.8134C48.0404 25.7524 48.071 25.6913 48.1002 25.626C48.9211 23.8196 49.0096 21.5877 48.9663 19.6299ZM18.3346 6.89258H18.3425L18.1655 7.04271C18.1416 7.03628 18.1165 7.03641 18.0926 7.04306C18.0688 7.04972 18.0472 7.06267 18.0301 7.08055C18.1188 6.9993 18.2222 6.93553 18.3346 6.89258V6.89258Z" fill="#F9F8F7"/>
<path d="M18.7289 38.4021C18.3521 37.759 18.0576 37.0711 17.8525 36.3546C17.6139 35.4831 17.642 34.6152 17.57 33.7254C17.5382 33.3336 17.5162 32.9491 17.1952 32.6818C17.038 32.5596 16.862 32.4638 16.674 32.3981L14.7272 31.1415C14.2585 30.8363 13.8032 30.3945 13.229 30.3707C13.1832 30.3698 13.1378 30.3786 13.0957 30.3966C13.0536 30.4146 13.0158 30.4413 12.9848 30.475C11.0276 30.364 9.19311 31.2739 8.02258 32.8832C6.90392 34.4218 6.28081 37.2029 7.37079 38.9422C7.13827 39.0533 6.88256 39.1662 6.82153 39.4304C6.7605 39.7173 6.9564 39.9479 7.19503 40.07C7.2823 40.1139 7.39093 40.1097 7.47637 40.1438C7.89747 40.1178 8.2669 40.2806 8.58466 40.6321C8.65608 40.7228 8.73802 40.8048 8.82877 40.8762C9.29975 41.3437 9.81318 41.7664 10.3624 42.1389C12.5351 43.5987 14.9115 43.5602 17.072 42.1041C17.6162 41.7291 18.1335 41.3166 18.6203 40.8695C18.9443 40.5784 19.3276 40.3068 19.3654 39.8387C19.4069 39.312 18.973 38.8329 18.7289 38.4021Z" fill="#FDE41B"/>
<path d="M47.6385 14.6162C47.6262 14.6162 47.6134 14.6162 47.6006 14.6162C47.3272 14.0551 47.0294 13.5059 46.7071 12.9684C46.6762 12.9131 46.626 12.8713 46.566 12.8509C46.5061 12.8305 46.4407 12.833 46.3825 12.8579C46.0196 12.1398 45.655 11.4223 45.2888 10.7055C45.1329 10.4231 44.9977 10.1298 44.8842 9.82786C44.7829 9.5101 44.7242 9.18031 44.7097 8.84712C44.6627 8.14285 44.6138 7.44346 44.4869 6.74956C44.2703 5.55949 43.9376 4.23333 42.9484 3.44362C42.0732 2.74544 40.8844 2.58311 39.8048 2.76071C38.4298 2.98712 37.2306 3.7866 36.1027 4.56227C35.176 4.35145 34.2389 4.18849 33.2954 4.07404V4.06733C33.2344 3.85617 32.964 3.8757 32.8859 4.02645C32.4099 3.97518 31.9332 3.93612 31.456 3.90927C31.4475 3.90864 31.4389 3.90864 31.4304 3.90927C30.258 3.65995 29.044 3.68333 27.8821 3.97762C27.6789 2.84431 26.949 1.85564 25.9542 1.26671C24.7874 0.575862 23.3453 0.538634 22.0935 1.02259C20.7674 1.53402 19.7183 2.55259 19.0964 3.82444C18.7832 4.46585 18.5682 5.15073 18.4587 5.85609C18.4056 6.19785 18.4153 6.55793 18.3433 6.89359C18.2713 7.22924 17.9771 7.35924 17.6915 7.50387C16.2196 8.24105 14.9494 9.32567 13.9907 10.664C13.9586 10.7167 13.9447 10.7787 13.9513 10.8401C13.9579 10.9016 13.9847 10.9592 14.0273 11.0039C15.1393 11.9651 16.7413 12.0371 18.1413 12.1024C19.7336 12.1809 21.3296 12.0709 22.8961 11.7747C25.7388 11.2291 28.4363 9.97921 30.5595 7.99088C31.4908 7.12303 32.288 6.1216 32.925 5.01939C32.9469 5.02976 32.9695 5.03831 32.9915 5.04929C33.0383 5.07273 33.0906 5.08326 33.1428 5.07981C33.9035 7.3853 35.2201 9.46809 36.9762 11.1443C38.7324 12.8206 40.8742 14.0387 43.2126 14.6913C43.942 14.8945 44.6853 15.044 45.4365 15.1386C45.8149 15.1868 46.1951 15.2234 46.5765 15.2338C46.8634 15.2411 47.1527 15.2253 47.4395 15.2338C47.4596 15.238 47.4801 15.239 47.5005 15.2369C47.575 15.2369 47.6488 15.2423 47.7227 15.2491C48.1511 15.293 48.1334 14.5442 47.6385 14.6162Z" fill="#C8B1AF"/>
<path d="M22.3047 40.3666C22.1509 40.0938 21.7359 39.8417 21.7151 39.5122C21.7066 39.3749 21.8335 39.2907 21.9171 39.1985C22.0294 39.0764 22.1313 38.9349 22.1393 38.7603C22.157 38.3642 21.7035 38.15 21.3978 38.0121C21.0499 37.8577 20.7008 37.8144 20.3298 37.7558C20.0551 37.7124 19.7073 37.6264 19.7872 37.2706C19.8714 36.8959 20.284 36.6713 20.5397 36.4211C21.0463 35.9261 21.7987 34.7916 20.8497 34.3406C20.4286 34.1398 19.9245 34.0769 19.4735 33.9677C18.9548 33.8428 18.4367 33.7142 17.9191 33.582C17.8912 33.5739 17.8618 33.5725 17.8332 33.578C17.8047 33.5836 17.7778 33.5958 17.755 33.6137C17.7263 33.6194 17.6998 33.6333 17.6788 33.6537C17.6578 33.674 17.6432 33.7 17.6366 33.7285C17.5493 34.1123 17.5871 34.5109 17.6213 34.9014C17.6552 35.2953 17.71 35.687 17.7855 36.075C17.9427 36.8681 18.1871 37.6413 18.5142 38.3807C18.8357 39.1099 19.238 39.8008 19.7134 40.4404C20.1217 40.9897 20.6624 41.7416 21.435 41.7159C22.1259 41.6921 22.6733 41.0202 22.3047 40.3666Z" fill="#C8B1AF"/>
<path d="M39.5929 34.6527C38.8703 34.9329 38.1686 35.2641 37.4929 35.6438C36.9919 35.9257 36.406 36.3401 36.6208 37.0017C36.7844 37.5076 37.4533 37.9262 37.1475 38.5054C36.8051 39.1523 35.9696 39.1438 35.3777 39.3958C35.0634 39.5289 34.8211 39.8017 34.9279 40.1605C34.9773 40.3277 35.0652 40.4657 35.0402 40.6445C35.0262 40.7313 34.9948 40.8145 34.9478 40.8888C34.9008 40.9632 34.8392 41.0273 34.7668 41.0772C34.6807 41.1419 34.6893 41.2926 34.76 41.3628C35.1506 41.7497 35.717 41.5416 36.1064 41.2633C36.583 40.9229 37.0251 40.5366 37.4264 40.1099C38.2271 39.2555 38.8716 38.2351 39.1926 37.1048C39.3745 36.4696 39.4421 35.8071 39.3921 35.1482C39.3913 35.1404 39.3899 35.1326 39.3879 35.125C39.499 35.0725 39.6106 35.0188 39.7211 34.9676C39.8914 34.887 39.7748 34.5819 39.5929 34.6527Z" fill="#C8B1AF"/>
<path d="M20.5486 34.6493C20.3374 34.3844 20.0134 34.3405 19.7143 34.4827C19.444 34.6115 19.1651 34.6658 18.8733 34.7329C18.5584 34.8019 18.1697 34.8159 17.9072 35.0088C17.4935 35.3139 17.3977 35.9633 17.9072 36.2477C18.758 36.7225 19.8522 36.0505 20.4979 35.4982C20.7396 35.2938 20.7347 34.8837 20.5486 34.6493Z" fill="#B28885"/>
<path d="M21.0807 38.7714C20.9623 38.49 20.6334 38.3051 20.3276 38.4015C20.2568 38.4241 20.1867 38.4443 20.114 38.4626L20.0628 38.4772C20.0114 38.4845 19.9596 38.4882 19.9078 38.4882C19.7923 38.4979 19.6778 38.5169 19.5654 38.545C19.4257 38.5839 19.3025 38.6673 19.2145 38.7825C19.1264 38.8976 19.0782 39.0383 19.0771 39.1833C19.0887 39.4494 19.2712 39.7796 19.5654 39.8217C19.6779 39.8452 19.7928 39.856 19.9078 39.854C20.0329 39.8432 20.1568 39.8203 20.2776 39.7857C20.4642 39.7305 20.6456 39.6588 20.8195 39.5715C21.1051 39.4305 21.1955 39.0436 21.0807 38.7714Z" fill="#B28885"/>
<path d="M19.5349 37.7246C19.4655 37.6113 19.3569 37.5275 19.2298 37.489C19.0996 37.4534 18.9625 37.4513 18.8312 37.4829C18.7039 37.517 18.5867 37.5813 18.4895 37.6703C18.3918 37.7478 18.3369 37.9193 18.3369 38.0364C18.3383 38.1737 18.393 38.305 18.4895 38.4026C18.5867 38.4997 18.7183 38.5545 18.8557 38.5552C18.9411 38.5515 19.0246 38.5283 19.0998 38.4874C19.1872 38.4883 19.2734 38.466 19.3494 38.4228C19.4075 38.3888 19.4583 38.3437 19.499 38.29C19.5396 38.2364 19.5693 38.1752 19.5863 38.1101C19.6033 38.045 19.6073 37.9771 19.5981 37.9105C19.5888 37.8438 19.5666 37.7796 19.5325 37.7215L19.5349 37.7246Z" fill="#B28885"/>
<path d="M38.8395 36.1294C38.5709 36.0378 38.2292 36.0903 37.9466 36.094C37.5762 36.0988 37.2198 36.4168 37.2374 36.8031C37.2406 36.9903 37.3163 37.1689 37.4486 37.3013C37.5809 37.4337 37.7595 37.5096 37.9466 37.5129C38.2267 37.5159 38.5734 37.5666 38.8395 37.475C39.1214 37.3786 39.3661 37.1199 39.3521 36.8037C39.3478 36.6519 39.296 36.5052 39.2041 36.3842C39.1121 36.2633 38.9846 36.1742 38.8395 36.1294V36.1294Z" fill="#B28885"/>
<path d="M38.3868 38.235C38.1616 38.0635 37.8113 38.0421 37.5366 38.0733C37.204 38.1111 36.9379 38.3448 36.9874 38.7074C37.035 39.0607 37.3536 39.2316 37.6862 39.173H37.6953H37.7075C37.7576 39.173 37.807 39.173 37.857 39.173C37.8674 39.1724 37.8778 39.1724 37.8882 39.173C37.9407 39.1816 37.9938 39.1889 38.0468 39.195C38.0737 39.195 38.1012 39.1895 38.1286 39.1883C38.3471 39.1742 38.5711 39.0394 38.623 38.8117C38.6754 38.5725 38.5747 38.3796 38.3868 38.235Z" fill="#B28885"/>
<path d="M37.4924 39.4929L36.7265 39.3153C36.4659 39.2543 36.159 39.3959 36.0961 39.6735C36.0351 39.9396 36.176 40.2332 36.4537 40.3033L37.216 40.4962C37.4796 40.5627 37.7927 40.4108 37.8562 40.13C37.9166 39.867 37.7756 39.5582 37.4924 39.4929Z" fill="#B28885"/>
<path d="M21.9179 15.3407C21.4513 15.2443 20.9672 15.2772 20.5179 15.4359C20.1109 15.4895 19.7301 15.6665 19.4267 15.943C18.8298 16.5014 18.6382 17.4687 19.0788 18.1755C19.5982 19.0115 20.6821 18.9957 21.5365 18.8401C22.4519 18.6728 23.4009 18.1498 23.5071 17.1312C23.6066 16.1768 22.7809 15.5109 21.9179 15.3407Z" fill="#FDC0B1"/>
<path d="M39.8452 17.5755C39.202 17.1171 38.3933 16.8248 37.6262 17.166C37.5429 17.2029 37.463 17.2473 37.3876 17.2984C37.2026 17.374 37.0395 17.4945 36.9128 17.649C36.7861 17.8035 36.6999 17.9872 36.6619 18.1833C36.4715 19.0444 37.0757 19.7524 37.8093 20.0929C38.4403 20.4982 39.2337 20.7246 39.9453 20.5708C40.5086 20.4487 40.9486 20.0532 41.0774 19.5614C41.5021 18.6935 40.785 17.9679 39.8452 17.5755Z" fill="#FDC0B1"/>
<path d="M23.0302 3.6626C22.481 3.26835 21.7334 3.00227 21.1414 3.45999C20.7423 3.76879 20.6599 4.21003 20.5598 4.65127C20.5354 4.73549 20.5134 4.82093 20.4988 4.9082C20.4619 5.05095 20.4101 5.18943 20.3444 5.32137C20.2015 5.59783 20.4011 5.83584 20.6342 5.87612C20.7001 5.92125 20.7747 5.95225 20.8531 5.96716C20.9316 5.98208 21.0123 5.98059 21.0901 5.96278L22.4816 5.60454C22.7831 5.52704 23.1267 5.47516 23.3537 5.23837C23.8407 4.73488 23.5209 4.01474 23.0302 3.6626Z" fill="#FDC0B1"/>
<path d="M43.0101 6.27211C42.7513 5.89801 42.379 5.66183 41.9115 5.74117C41.3989 5.82844 41.1066 6.25442 40.6726 6.48816C40.4285 6.62059 40.4346 6.86349 40.564 7.02887C40.564 7.03437 40.564 7.03986 40.564 7.04535C40.6501 7.96079 42.0287 8.44292 42.7995 8.38799C44.0018 8.30682 43.4403 6.89644 43.0101 6.27211Z" fill="#FDC0B1"/>
<g style="mix-blend-mode:multiply" opacity="0.43">
<path d="M19.956 39.2232C19.4632 38.1842 19.0843 37.095 18.8257 35.9746C18.5999 34.9731 18.2966 33.8728 18.3485 32.831C18.7342 32.5704 18.6915 31.8686 18.2801 31.6269C16.5304 30.5998 13.825 29.8571 13.1867 27.6673C12.9962 27.0149 12.0674 27.2938 12.1827 27.9444C12.3792 29.049 12.9944 30.0322 13.8177 30.7847C14.8204 31.7001 15.9781 32.1554 17.1438 32.784C17.4611 32.8023 17.6369 32.9893 17.6711 33.3449C17.6796 33.437 17.6882 33.5279 17.6961 33.6219C17.7528 33.9802 17.729 34.3665 17.7571 34.729C17.7997 35.3196 17.8868 35.9061 18.0177 36.4836C18.2777 37.6431 18.7067 38.6806 19.4513 39.6144C19.6899 39.9207 20.0988 39.5308 19.956 39.2232Z" fill="#F7C9B6"/>
</g>
<g style="mix-blend-mode:multiply" opacity="0.43">
<path d="M45.0131 31.3544C43.5606 32.7104 41.2384 32.4156 39.5754 33.4464C39.0872 33.7516 39.5144 34.454 40.0209 34.2093C41.8658 33.3189 44.1404 33.6204 45.5483 31.8902C45.8504 31.5173 45.3762 31.0144 45.0131 31.3544Z" fill="#F7C9B6"/>
</g>
<g style="mix-blend-mode:multiply" opacity="0.43">
<path d="M33.8581 29.23C32.1774 29.291 30.5205 29.496 28.8342 29.4564C27.1026 29.4047 25.3809 29.1765 23.6956 28.7753C23.0005 28.6142 22.7295 29.6144 23.402 29.8396C26.6506 30.9284 30.6975 31.4453 34.001 30.2833C34.5423 30.0923 34.4959 29.208 33.8581 29.23Z" fill="#F7C9B6"/>
</g>
<g style="mix-blend-mode:multiply" opacity="0.43">
<path d="M48.3289 16.8664C48.2919 16.7678 48.2212 16.6854 48.1293 16.6339C47.9686 16.0253 47.7725 15.4266 47.5422 14.8408C47.4251 14.1585 47.0931 13.4701 46.8349 12.8739C46.4054 11.8627 45.8348 10.9176 45.1401 10.0665C45.0309 9.93411 44.5732 9.56733 44.575 9.43856C44.575 9.29819 44.7581 9.11266 44.8155 8.97352C45.0279 8.46759 45.0352 7.94762 44.9674 7.41118C44.8313 6.3334 44.3571 5.32704 43.8823 4.35973C43.6138 3.81535 42.6618 4.20166 42.8882 4.779C43.3026 5.82564 43.7157 6.90586 43.5766 8.05137C43.5204 8.51275 43.2751 9.05163 43.3093 9.51606C43.3392 9.92008 43.6144 10.2173 43.8427 10.5298C44.4553 11.3656 45.0131 12.2404 45.5124 13.1485C45.8456 13.7588 46.047 14.5052 46.3668 15.1497C47.1828 17.6994 47.4837 20.4372 46.7989 23.0053C46.3717 24.5969 45.5551 26.2209 44.3687 27.3786C43.6886 28.0268 42.9094 28.5625 42.0606 28.9654C41.0945 29.4274 39.9856 29.3316 38.9665 29.6428C38.5844 29.76 38.6424 30.3636 39.0629 30.355C40.6667 30.3221 42.5531 30.3648 44.1802 29.9034C44.3242 30.1237 44.647 30.2549 44.896 30.1109C46.91 28.9452 48.2795 26.3051 48.7964 24.1105C49.3621 21.7103 49.2303 19.1721 48.3289 16.8664Z" fill="#F7C9B6"/>
</g>
<g style="mix-blend-mode:multiply" opacity="0.43">
<path d="M32.1407 13.3282C31.9338 12.9547 31.448 12.8778 31.0916 13.0646C30.9753 13.1341 30.8909 13.2466 30.8566 13.3777C30.8224 13.5089 30.841 13.6483 30.9085 13.7658C30.9785 13.8774 31.0871 13.9594 31.2137 13.9959C31.3651 14.0702 31.5339 14.1016 31.7019 14.0868C31.885 14.0661 32.0394 14.0038 32.1371 13.8372C32.182 13.7601 32.206 13.6725 32.2066 13.5832C32.2073 13.4939 32.1845 13.406 32.1407 13.3282Z" fill="#F7C9B6"/>
</g>
<g style="mix-blend-mode:multiply" opacity="0.43">
<path d="M19.8795 2.38693C19.5365 2.93558 19.3023 3.54517 19.1899 4.18239C19.1838 4.19033 19.1771 4.19704 19.1716 4.20559C18.7499 4.85432 18.4777 5.60926 18.084 6.28424C17.8137 6.74683 18.5003 7.32172 18.8518 6.87621C19.0745 6.59182 19.3217 6.4368 19.6928 6.43192C19.7677 6.43082 19.8414 6.41271 19.9082 6.37896C19.9751 6.34521 20.0335 6.2967 20.0788 6.23709C20.1242 6.17749 20.1555 6.10834 20.1702 6.03488C20.1849 5.96143 20.1828 5.88559 20.1639 5.81309C19.8966 4.75118 19.9979 3.72712 20.5057 2.7531C20.7217 2.3381 20.1267 1.98841 19.8795 2.38693Z" fill="#F7C9B6"/>
</g>
<path d="M33.3357 16.7078C33.3341 16.6206 33.3128 16.5349 33.2734 16.4571C33.2339 16.3793 33.1774 16.3114 33.108 16.2586C33.0386 16.2058 32.9582 16.1693 32.8727 16.152C32.7872 16.1347 32.6989 16.1369 32.6144 16.1586C32.3867 16.2141 31.3328 16.2806 31.3486 15.8687C31.3639 15.5025 30.8293 15.2462 30.5809 15.5507C30.1537 16.0725 29.4824 16.2989 28.9215 15.8083C28.4589 15.4055 27.8535 15.9914 28.2014 16.4601C28.0443 16.9324 28.0167 17.4382 28.1214 17.9248C28.1856 18.3009 28.3298 18.6589 28.5443 18.9745C29.2297 19.9772 30.4082 20.2109 31.4951 19.7416C32.7114 19.2143 33.3998 18.0175 33.3357 16.7078Z" fill="#F36291"/>
<path d="M32.7472 18.7806C32.522 17.9634 31.7433 17.6906 31.0042 17.4514C30.0101 17.1304 29.0263 17.0083 28.0346 17.3904C27.4993 17.5972 27.6452 18.3668 28.1688 18.3497C28.1979 18.5098 28.2889 18.6519 28.4221 18.7452C28.9793 19.1553 29.4687 19.6991 30.1675 19.859C30.9176 20.0311 31.6627 19.7448 32.3511 19.4763C32.6367 19.3652 32.8333 19.1016 32.7472 18.7806Z" fill="#F08FAB"/>
<path d="M18.9179 39.1506C18.9179 39.1439 18.9179 39.136 18.9142 39.1286C18.8878 39.024 18.8384 38.9265 18.7695 38.8433C18.7007 38.7601 18.6142 38.6933 18.5163 38.6477C18.5318 38.3377 18.509 38.027 18.4486 37.7225C18.3506 37.2131 18.2047 36.7141 18.0128 36.2322C18.0806 35.6829 17.6973 35.094 17.3562 34.7065C17.3462 34.6953 17.3353 34.6849 17.3238 34.6754C17.4727 34.1774 17.5142 33.6635 17.3848 33.1802C17.2628 32.7279 16.8814 32.4802 16.4529 32.3441C16.2814 32.2891 15.8109 32.3312 15.6687 32.2452C15.5265 32.1591 15.5387 31.9443 15.3459 31.8564C15.034 31.7155 14.7856 32.1231 15.0749 32.3196C15.1616 32.3807 15.1835 32.662 15.2903 32.759C15.5582 33.0032 15.9739 32.8811 16.2668 33.0923C17.2158 33.7673 15.8634 35.7031 15.3111 36.2316C14.8881 36.6368 15.5015 37.1977 15.9372 36.8578C16.1588 36.6844 16.3895 36.5178 16.6049 36.336C16.9711 36.0308 16.8185 36.0601 17.0419 36.336C17.4691 36.87 17.6521 38.0179 17.5911 38.6612C17.5301 39.3044 17.2005 39.8476 16.7861 40.3419C16.2558 40.8161 15.756 41.2903 15.1384 41.5899C14.5817 41.7418 14.0065 41.8148 13.4296 41.8066C12.1876 41.7852 11.3051 41.2329 10.3116 40.5579C9.89537 40.2754 9.46389 39.9013 9.02204 39.6663C8.54174 39.4106 7.93268 39.5943 7.4005 39.4747C6.93546 39.3697 6.7475 40.0459 7.20338 40.1893C7.52439 40.2853 7.85525 40.3444 8.18961 40.3657C8.78891 40.4188 8.87435 40.4603 9.23564 40.8631C9.62684 41.2994 10.029 41.7273 10.5136 42.0568C11.5627 42.766 12.7863 43.0192 14.0392 42.9253C16.0416 42.7745 18.8154 41.6327 19.2627 39.4106C19.2731 39.3661 19.2703 39.3195 19.2547 39.2765C19.2391 39.2335 19.2114 39.196 19.1749 39.1684C19.1384 39.1409 19.0946 39.1246 19.049 39.1214C19.0034 39.1182 18.9579 39.1284 18.9179 39.1506Z" fill="#FDC01B"/>
<path d="M9.66803 33.0772C9.63567 33.024 9.59039 32.9799 9.53641 32.9488C9.48243 32.9178 9.42148 32.9009 9.35922 32.8996C9.13097 32.8838 8.88136 33.0272 8.72879 33.1853C8.59392 33.3244 8.57927 33.5722 8.72879 33.7089C8.78731 33.7616 8.85976 33.7963 8.9375 33.809C8.99305 33.8496 9.06032 33.871 9.12914 33.87C9.25974 33.8645 9.37874 33.7717 9.47212 33.6869C9.5505 33.6146 9.61666 33.5301 9.66803 33.4367C9.69934 33.382 9.71581 33.32 9.71581 33.257C9.71581 33.1939 9.69934 33.132 9.66803 33.0772V33.0772Z" fill="#FDC01B"/>
<path d="M7.93314 37.4018C7.8599 37.0466 7.81108 36.7305 7.90446 36.3741C8.00027 36.0079 7.40768 35.8541 7.34177 36.2191C7.25999 36.6707 7.27464 37.1735 7.51509 37.5776C7.65363 37.807 7.98685 37.6508 7.93314 37.4018Z" fill="white"/>
<path d="M8.09897 38.4815L8.06235 38.2557C8.04738 38.2012 8.01138 38.1549 7.96228 38.127C7.91319 38.099 7.85501 38.0918 7.80054 38.1067C7.74681 38.1228 7.70137 38.159 7.67373 38.2078C7.64609 38.2566 7.63839 38.3142 7.65224 38.3686C7.66933 38.4424 7.68641 38.5169 7.70411 38.5907C7.71879 38.6429 7.75352 38.6873 7.80073 38.714C7.84794 38.7408 7.90381 38.7478 7.95616 38.7335C8.00761 38.7176 8.05105 38.6827 8.0776 38.6358C8.10415 38.589 8.11179 38.5338 8.09897 38.4815Z" fill="white"/>
<path d="M11.1682 33.7565C11.1674 33.726 11.1643 33.6956 11.159 33.6655C11.181 33.4403 11.0174 33.1864 10.7642 33.2072C10.7446 33.2072 10.7257 33.2115 10.7062 33.2139C10.5764 33.1899 10.4423 33.2114 10.3266 33.2749C10.0642 33.419 9.8524 33.6741 9.67724 33.9102C9.49416 34.1544 9.29947 34.4137 9.38003 34.7402C9.39957 34.8188 9.4355 34.8923 9.48546 34.956C9.53543 35.0196 9.5983 35.072 9.66995 35.1096C9.7416 35.1473 9.82039 35.1693 9.90117 35.1744C9.98195 35.1794 10.0629 35.1672 10.1386 35.1388C10.431 35.035 10.6684 34.7769 10.8441 34.4803C11.0406 34.2795 11.1731 34.0213 11.1682 33.7565Z" fill="#FB7F1C"/>
<path d="M10.0405 35.7143C9.64873 35.6191 9.15623 35.8364 8.85841 36.0805C8.69627 36.214 8.5772 36.3925 8.51617 36.5934C8.45515 36.7944 8.45489 37.009 8.51543 37.2101C8.66922 37.6813 9.17576 37.9193 9.6469 37.8204C9.98622 37.749 10.2731 37.4957 10.4403 37.1979C10.496 37.0953 10.5334 36.9838 10.5507 36.8684C10.8235 36.454 10.5196 35.8309 10.0405 35.7143Z" fill="#FFAD12"/>
<path d="M14.0007 31.531C13.7676 31.2295 13.3666 31.1269 13.0053 31.2289C12.8779 31.2663 12.7583 31.3267 12.6526 31.4071C12.495 31.4838 12.3532 31.5894 12.2345 31.7183C11.9294 32.0576 11.8769 32.5727 12.2028 32.9218C12.464 33.2001 12.8436 33.2685 13.2049 33.18C13.5265 33.1012 13.8835 32.9139 14.0593 32.6246C14.16 32.4573 14.2082 32.2637 14.1978 32.0688C14.1873 31.8738 14.1187 31.6865 14.0007 31.531Z" fill="#FFAD12"/>
<path d="M19.4493 28.3981C18.493 27.8488 17.4445 27.4698 16.379 27.1958C15.8486 27.0591 15.311 26.9517 14.7702 26.8632C14.3052 26.79 13.831 26.7094 13.3593 26.7625C12.9436 26.8101 12.5103 26.9456 12.2278 27.2733C11.8866 27.6682 11.8647 28.2065 12.0447 28.677C12.2308 29.1744 12.5732 29.6004 12.9198 29.9964C13.28 30.4034 13.6714 30.7817 14.0904 31.1279C15.0357 31.9147 16.0771 32.5785 17.1894 33.1034C17.4702 33.2365 17.7161 32.8184 17.4335 32.6848C16.5491 32.2666 15.7088 31.7608 14.9252 31.1749C14.1496 30.5939 13.3995 29.9165 12.8381 29.1231C12.5756 28.7539 12.2729 28.229 12.4792 27.7683C12.6318 27.4277 13.0163 27.2904 13.3611 27.2446C13.7883 27.1885 14.2222 27.2617 14.6427 27.3282C15.1114 27.4023 15.5768 27.4953 16.039 27.6072C17.1375 27.8745 18.2214 28.2486 19.2058 28.8137C19.4774 28.9693 19.7215 28.55 19.4499 28.395L19.4493 28.3981Z" fill="#9C5043"/>
<path d="M25.8047 12.8351C25.6313 12.3872 25.3537 12.0955 25.0223 11.9307C24.0781 11.4614 22.7032 12.0216 22.0868 12.9224C21.518 13.7542 21.4826 14.9583 22.1917 15.7212C23.2591 16.8692 24.938 16.3364 25.5837 15.0426C25.9224 14.3609 26.0799 13.5455 25.8047 12.8351ZM24.047 13.4607C23.8117 13.6989 23.4979 13.8435 23.1639 13.8678C22.91 13.8873 22.6336 13.7756 22.5677 13.5065C22.5544 13.4514 22.5488 13.3947 22.5512 13.338C22.5493 13.3345 22.5477 13.3308 22.5463 13.327C22.5102 13.1821 22.5321 13.0288 22.6073 12.8998C22.7589 12.6446 22.9972 12.4522 23.2787 12.3579H23.2884C23.3322 12.3338 23.3772 12.312 23.4233 12.2926C23.4552 12.2802 23.4895 12.2754 23.5236 12.2784C23.5577 12.2815 23.5906 12.2924 23.6198 12.3103C23.6495 12.3118 23.6791 12.3154 23.7083 12.3213C23.7902 12.3397 23.8689 12.3699 23.942 12.411C23.9992 12.4149 24.0559 12.4235 24.1117 12.4366C24.1662 12.4478 24.2156 12.4764 24.2524 12.5181C24.2892 12.5598 24.3114 12.6124 24.3155 12.6679C24.3147 12.7409 24.301 12.8132 24.2753 12.8815C24.2787 12.9886 24.2602 13.0953 24.221 13.195C24.1817 13.2947 24.1225 13.3853 24.047 13.4613V13.4607Z" fill="#9C5043"/>
<path d="M39.1111 14.6112C38.5905 13.351 36.7804 12.8444 35.6709 13.7568C34.9514 14.3488 34.7097 15.4845 35.1393 16.3133C35.5861 17.1732 36.6004 17.5949 37.5335 17.3655C38.4666 17.136 39.2582 16.328 39.2551 15.343C39.2553 15.092 39.2064 14.8434 39.1111 14.6112V14.6112ZM38.2164 15.5541C37.8917 15.5938 37.6201 15.2954 37.4651 15.0476C37.3777 14.9101 37.3081 14.7621 37.2582 14.607C37.229 14.5396 37.2101 14.4682 37.2021 14.3952C37.1971 14.3547 37.1971 14.3137 37.2021 14.2731C37.2012 14.2191 37.2055 14.1652 37.2149 14.112C37.2223 14.0738 37.2388 14.0379 37.2629 14.0073C37.287 13.9767 37.318 13.9524 37.3535 13.9362C37.4104 13.872 37.4827 13.8233 37.5636 13.7945C37.6445 13.7656 37.7313 13.7577 37.8161 13.7715C37.9632 13.7991 38.1006 13.8648 38.2146 13.9619C38.472 14.162 38.6486 14.4482 38.712 14.7681C38.7736 15.0934 38.5704 15.5108 38.2164 15.5541V15.5541Z" fill="#9C5043"/>
<path d="M24.069 5.21994C27.6764 3.83764 31.8197 3.75159 35.504 4.88856C36.5385 5.20556 37.5349 5.63534 38.4755 6.17017C38.7471 6.32518 38.9912 5.90591 38.7196 5.75151C35.2495 3.77234 31.0074 3.23651 27.0991 3.89806C26.0201 4.0778 24.9615 4.364 23.939 4.75247C23.6509 4.86293 23.776 5.33224 24.0684 5.22055L24.069 5.21994Z" fill="#9C5043"/>
<path d="M19.8884 6.07837C16.9773 7.12319 14.5923 9.43985 12.9378 11.9982C11.1069 14.8287 10.0426 18.2671 10.4094 21.6523C10.6334 23.6863 11.3629 25.6318 12.5313 27.3116C12.7077 27.5667 13.1282 27.3244 12.95 27.0674C11.9316 25.6111 11.2538 23.9444 10.9666 22.1906C10.7078 20.5697 10.8061 18.8993 11.1777 17.3046C11.907 14.1763 13.6464 11.2628 15.999 9.0871C17.1647 8.0081 18.5152 7.08412 20.0172 6.54524C20.3083 6.44027 20.1826 5.97157 19.8878 6.07715L19.8884 6.07837Z" fill="#9C5043"/>
<path d="M17.0883 33.0237C17.3232 34.6715 17.5722 36.3357 18.1593 37.8999C18.7367 39.4372 19.6851 40.9221 21.1308 41.7697C22.0689 42.319 23.1662 42.5558 24.2317 42.7017C24.5369 42.7438 24.6687 42.2745 24.3605 42.2342C23.4365 42.1072 22.4875 41.9193 21.6471 41.4982C20.9246 41.1363 20.3045 40.5766 19.8077 39.9425C18.8227 38.6817 18.329 37.1077 18.0025 35.5631C17.8151 34.6806 17.6833 33.7872 17.5564 32.8943C17.5124 32.5892 17.045 32.7179 17.0883 33.0237V33.0237Z" fill="#9C5043"/>
<path d="M32.8717 42.662C34.4933 42.5912 36.0342 42.0242 37.2273 40.9068C38.3649 39.8418 39.0985 38.4046 39.5562 36.9338C39.829 36.0319 40.0184 35.1069 40.122 34.1704C40.1586 33.8616 39.6734 33.8653 39.6374 34.1704C39.2993 37.0217 38.1843 40.2263 35.4264 41.5671C34.633 41.9541 33.7517 42.1384 32.8711 42.1774C32.5599 42.1909 32.5586 42.676 32.8711 42.662H32.8717Z" fill="#9C5043"/>
<path d="M27.5586 42.8778C28.4547 42.9367 29.3538 42.9336 30.2494 42.8686C30.3138 42.8674 30.3751 42.8412 30.4206 42.7957C30.4662 42.7502 30.4923 42.6888 30.4935 42.6245C30.4935 42.5597 30.4678 42.4977 30.422 42.4519C30.3762 42.4061 30.3141 42.3804 30.2494 42.3804C29.3538 42.4453 28.4547 42.4485 27.5586 42.3901C27.2468 42.3706 27.248 42.8558 27.5586 42.8747V42.8778Z" fill="#9C5043"/>
<path d="M42.7368 8.91657C45.3878 10.6254 47.198 13.4742 48.1268 16.4457C49.0752 19.4795 49.0551 22.7372 47.934 25.7221C47.3048 27.3998 46.2947 28.9878 44.8441 30.0692C44.5969 30.2523 44.8386 30.6746 45.0882 30.4879C47.8058 28.4623 49.0673 24.9629 49.2815 21.6783C49.492 18.4438 48.5162 15.1037 46.7726 12.3879C45.7864 10.8524 44.52 9.48719 42.9809 8.49547C42.7178 8.32581 42.4743 8.74507 42.7368 8.91412V8.91657Z" fill="#9C5043"/>
<path d="M18.1244 7.26931C18.4454 6.43627 18.7096 5.57881 19.063 4.75858C19.4316 3.89315 19.9121 3.07981 20.4923 2.33939C21.124 1.54601 21.9436 0.982101 22.9743 0.892999C23.9777 0.806338 24.9688 1.10966 25.7982 1.66868C26.7044 2.27897 27.3788 3.16511 27.9622 4.07566C28.1307 4.33747 28.5506 4.09458 28.3815 3.83154C27.8176 2.95151 27.1762 2.1087 26.3419 1.46728C25.4942 0.815494 24.4635 0.410876 23.3875 0.395008C22.8602 0.383224 22.3361 0.479473 21.8475 0.677841C21.3588 0.876208 20.9159 1.1725 20.546 1.54846C19.8192 2.2808 19.2516 3.22614 18.8085 4.15378C18.3483 5.11682 18.0402 6.14638 17.6569 7.1442C17.5446 7.43531 18.0133 7.56164 18.1244 7.27297V7.26931Z" fill="#9C5043"/>
<path d="M38.3725 30.8935C40.1069 30.5383 41.8707 30.0458 43.6582 30.1789C44.0409 30.2075 44.4559 30.2747 44.7836 30.4535C45.0588 30.6036 45.2382 30.8252 45.2718 31.1181C45.389 32.1397 44.213 32.5889 43.4281 32.8757C42.7568 33.1198 42.0592 33.3078 41.3666 33.4909C40.8258 33.6337 40.268 33.7582 39.7499 33.9681C39.4643 34.0841 39.5888 34.5534 39.8787 34.4362C40.3669 34.2379 40.893 34.1177 41.4044 33.9828C42.0489 33.8125 42.6933 33.6423 43.3244 33.4262C44.2911 33.0948 45.6386 32.6048 45.7552 31.4245C45.796 31.0156 45.6856 30.6061 45.3951 30.3076C45.1046 30.0092 44.6939 29.8597 44.2966 29.7791C43.234 29.5625 42.1056 29.701 41.0456 29.8633C40.1014 30.0074 39.1781 30.2344 38.2437 30.4254C37.9386 30.4864 38.0673 30.9558 38.3725 30.8935V30.8935Z" fill="#9C5043"/>
<path d="M24.0632 42.4946C24.2627 43.3295 24.7699 44.1814 25.4778 44.6806C25.8251 44.9247 26.2102 44.9858 26.6233 44.9058C27.0365 44.8259 27.4777 44.5854 27.6444 44.1771C27.7402 43.944 27.7188 43.6962 27.6688 43.4546C27.6218 43.2269 27.5351 42.9889 27.5693 42.7527C27.5882 42.6233 27.5376 42.4921 27.4002 42.4549C27.2861 42.4232 27.1207 42.494 27.1018 42.624C27.0733 42.83 27.0809 43.0394 27.1244 43.2428C27.158 43.4094 27.2141 43.5754 27.2269 43.7457C27.2526 44.099 26.9669 44.3041 26.6575 44.3981C26.3481 44.492 26.0472 44.4786 25.7732 44.2962C25.4717 44.0978 25.2288 43.8079 25.0335 43.5028C24.8022 43.1542 24.6323 42.7687 24.5313 42.3627C24.4586 42.0576 23.9912 42.1876 24.0632 42.4915V42.4946Z" fill="#9C5043"/>
<path d="M36.0062 4.85896C36.882 4.23845 37.8197 3.71037 38.8044 3.28318C39.7607 2.87063 40.8794 2.51117 41.9077 2.8688C42.7377 3.15807 43.3046 3.89897 43.6855 4.65756C44.1041 5.48999 44.3623 6.4274 44.4904 7.34283C44.6357 8.38765 44.6125 9.45077 44.6876 10.5011C44.7095 10.8105 45.1947 10.8129 45.1727 10.5011C45.102 9.49166 45.1117 8.47309 44.9897 7.46795C44.8743 6.46009 44.5986 5.47713 44.1731 4.55625C43.7849 3.73419 43.2003 2.93471 42.3599 2.53375C41.3475 2.0504 40.2056 2.23471 39.1864 2.60699C37.968 3.06462 36.8149 3.68017 35.7566 4.43786C35.5033 4.61667 35.7456 5.03716 36.0007 4.85651L36.0062 4.85896Z" fill="#9C5043"/>
<path d="M32.6792 42.5131C32.6112 42.8611 32.5191 43.2039 32.4034 43.539C32.3407 43.7165 32.2588 43.8865 32.1592 44.0462C32.1232 44.1077 32.08 44.1646 32.0305 44.2158C31.9842 44.2697 31.9284 44.3144 31.8657 44.3477C31.8565 44.3532 31.8114 44.3739 31.8523 44.3568C31.8384 44.3626 31.8241 44.3675 31.8095 44.3715C31.7879 44.3782 31.7659 44.3837 31.7436 44.388C31.754 44.388 31.7894 44.388 31.74 44.388C31.6245 44.394 31.5088 44.388 31.3945 44.3703C31.2282 44.3519 31.0682 44.2955 30.9271 44.2055C30.888 44.1811 30.9173 44.2055 30.8788 44.1676C30.8532 44.1432 30.8282 44.1176 30.8044 44.0914C30.7605 44.0419 30.8203 44.1158 30.7977 44.0828C30.7879 44.0688 30.7782 44.0547 30.769 44.0401C30.7493 44.0083 30.7314 43.9755 30.7153 43.9418C30.6976 43.9058 30.7348 43.9949 30.7116 43.9339C30.7067 43.9211 30.7019 43.9083 30.6976 43.8954C30.6866 43.8625 30.6768 43.8295 30.6683 43.7966C30.6598 43.7624 30.6524 43.7288 30.6463 43.6947C30.6463 43.677 30.6402 43.6599 30.6378 43.6428C30.6353 43.6257 30.6378 43.6288 30.6378 43.6544C30.6378 43.6403 30.6378 43.6263 30.6329 43.6123C30.606 43.3071 30.6329 43.002 30.6006 42.7017C30.5853 42.5717 30.4999 42.4576 30.3564 42.4576C30.2344 42.4576 30.0983 42.5693 30.1123 42.7017C30.185 43.3285 30.0104 44.0767 30.5652 44.5393C30.731 44.6743 30.9263 44.7684 31.1352 44.8139C31.375 44.8689 31.6594 44.9085 31.9017 44.8481C32.3155 44.7444 32.5773 44.3391 32.7402 43.9742C32.9204 43.5453 33.0547 43.0985 33.1406 42.6413C33.2016 42.3362 32.7372 42.2068 32.6731 42.5125L32.6792 42.5131Z" fill="#9C5043"/>
<path d="M28.0443 14.5243C27.7934 15.2932 28.3226 15.8931 29.0207 16.1293C29.4078 16.2637 29.8311 16.2487 30.2077 16.0873C30.5843 15.9258 30.8871 15.6296 31.0567 15.2566L30.5959 15.1956C30.8907 15.9145 31.526 16.4772 32.3102 16.5858C32.7038 16.6401 33.1194 16.5669 33.4234 16.2959C33.5644 16.1717 33.6678 16.0104 33.7218 15.8303C33.7757 15.6503 33.778 15.4587 33.7285 15.2773C33.6382 14.9661 33.1512 15.0985 33.2403 15.4116C33.2681 15.5213 33.2594 15.6371 33.2153 15.7413C33.1712 15.8455 33.0943 15.9325 32.9962 15.9889C32.7563 16.1391 32.4414 16.1202 32.1802 16.0451C31.9356 15.9728 31.7102 15.847 31.5202 15.6769C31.3302 15.5067 31.1804 15.2965 31.0817 15.0613C31.0103 14.8874 30.7204 14.7793 30.6209 15.0003C30.3664 15.5672 29.7885 15.8388 29.1965 15.6551C28.7315 15.5105 28.3592 15.1712 28.5252 14.6567C28.6259 14.3473 28.1389 14.2142 28.0369 14.5224L28.0443 14.5243Z" fill="#9C5043"/>
<path d="M28.3252 15.4843C27.9011 16.1556 27.6069 16.963 27.6502 17.7704C27.6948 18.6114 28.122 19.3297 28.8098 19.8051C30.2208 20.7773 32.3073 20.4764 33.1672 18.9263C33.6182 18.1128 33.6732 17.1449 33.5084 16.2453C33.4474 15.9261 32.9634 16.0622 33.0202 16.3796C33.2643 17.7161 32.845 19.309 31.412 19.7545C30.0798 20.1695 28.3386 19.3981 28.1623 17.912C28.0713 17.1455 28.3551 16.3783 28.7573 15.7388C28.9306 15.4629 28.4943 15.2096 28.3215 15.4843H28.3252Z" fill="#9C5043"/>
<path d="M50.9134 18.831C51.429 18.5485 51.8836 18.1666 52.2507 17.7074C52.6179 17.2482 52.8904 16.7207 53.0525 16.1555C53.003 16.8549 53.1043 17.5738 53.4156 18.2018C53.7268 18.8298 54.2608 19.3614 54.9199 19.5982C54.3908 19.8264 53.8214 19.9564 53.3015 20.2084C52.7815 20.4605 52.2951 20.8657 52.1456 21.4223C52.2444 20.8193 51.8862 20.2457 51.5438 19.7391C51.2448 19.2973 50.8115 18.7975 50.2915 18.9098" fill="#FDE41B"/>
<path d="M51.0343 19.0408C52.1275 18.4348 52.9366 17.421 53.2851 16.2207L52.8084 16.156C52.7145 17.6701 53.354 19.2685 54.8548 19.8324V19.3655C53.769 19.8232 52.2952 20.0454 51.9107 21.3575L52.3873 21.4185C52.4813 20.7149 52.0731 20.0594 51.6806 19.5101C51.334 19.0219 50.8708 18.5611 50.2263 18.6716C49.9212 18.7247 50.0493 19.1922 50.3551 19.1397C50.8073 19.0616 51.1607 19.5998 51.3743 19.919C51.6758 20.3694 51.9772 20.8552 51.9022 21.4185C51.8649 21.6962 52.3043 21.7365 52.3782 21.4832C52.6986 20.389 54.087 20.2083 54.9835 19.8299C55.205 19.7366 55.2197 19.4515 54.9835 19.3624C53.6879 18.8742 53.2137 17.4297 53.2936 16.1535C53.3107 15.8753 52.8914 15.8319 52.8176 16.0889C52.5033 17.1677 51.774 18.0778 50.7896 18.6197C50.5162 18.7705 50.7609 19.1891 51.0337 19.0384L51.0343 19.0408Z" fill="#FBA41C"/>
<path d="M49.3374 14.0377C49.6298 13.9298 49.8956 13.7603 50.1167 13.5407C50.3379 13.321 50.5092 13.0563 50.619 12.7646C50.5947 13.1004 50.6556 13.4368 50.7958 13.7427C50.9361 14.0487 51.1513 14.3143 51.4216 14.515C51.1532 14.5249 50.8927 14.6084 50.6686 14.7564C50.4445 14.9044 50.2654 15.1112 50.1509 15.3541C50.1424 15.0821 50.0673 14.8164 49.9321 14.5801C49.797 14.3439 49.606 14.1445 49.3759 13.9993" fill="#FDE41B"/>
<path d="M49.4023 14.2718C49.7338 14.1498 50.035 13.9577 50.2856 13.7087C50.5361 13.4598 50.7301 13.1598 50.8542 12.8291L50.3776 12.765C50.3545 13.1433 50.427 13.5213 50.5883 13.8641C50.7497 14.207 50.9948 14.5038 51.301 14.7271C51.3416 14.5765 51.3823 14.4258 51.423 14.2749C51.1127 14.2863 50.8113 14.3815 50.5507 14.5504C50.2901 14.7193 50.0802 14.9556 49.9431 15.2342L50.3953 15.3563C50.3842 15.0425 50.297 14.7361 50.141 14.4635C49.985 14.191 49.765 13.9606 49.5 13.7921C49.2357 13.6243 48.9922 14.0442 49.2559 14.2114C49.4492 14.3353 49.6098 14.5041 49.7238 14.7035C49.8378 14.9028 49.9019 15.1268 49.9107 15.3563C49.918 15.5791 50.2537 15.709 50.3623 15.4784C50.4566 15.2729 50.6054 15.0972 50.7925 14.9704C50.9796 14.8435 51.1979 14.7703 51.4236 14.7588C51.6787 14.7491 51.7343 14.4464 51.5457 14.3066C51.0678 13.9526 50.8206 13.3521 50.8628 12.7662C50.8628 12.7078 50.8414 12.6514 50.8028 12.6075C50.7641 12.5637 50.7108 12.5355 50.6528 12.5282C50.5951 12.5206 50.5365 12.5339 50.4877 12.5657C50.439 12.5975 50.4031 12.6457 50.3867 12.7015C50.2887 12.9532 50.139 13.1815 49.9473 13.3716C49.7555 13.5618 49.526 13.7096 49.2736 13.8055C49.2125 13.8242 49.1608 13.8655 49.1293 13.921C49.0977 13.9765 49.0887 14.042 49.1039 14.104C49.1363 14.2218 49.2791 14.3194 49.4023 14.273V14.2718Z" fill="#FBA41C"/>
<path d="M1.04321 19.7237C2.24915 19.2574 2.61654 17.4955 2.62264 16.3481C2.90887 16.9444 3.13956 17.822 3.6339 18.2285C4.12823 18.6349 4.755 18.9175 5.39336 18.8711C5.14924 18.8888 4.84105 19.1085 4.65063 19.2507C4.41917 19.4232 4.21684 19.6317 4.05133 19.8683C3.74985 20.2955 3.46546 20.9021 3.5631 21.4386C3.62413 21.2451 3.50207 20.9668 3.40321 20.7947C3.20981 20.4633 2.95333 20.1731 2.64828 19.9403C2.22108 19.6248 1.54243 19.6718 1.04199 19.7365" fill="#FDE41B"/>
<path d="M1.10705 19.9583C2.47349 19.409 2.85186 17.6734 2.86468 16.349L2.41307 16.4711C2.69746 17.0747 2.86529 17.7655 3.32484 18.269C3.59084 18.5473 3.91252 18.7664 4.26889 18.9121C4.62526 19.0577 5.00833 19.1266 5.39311 19.1143V18.626C4.80296 18.7017 4.25065 19.1991 3.90522 19.6568C3.50976 20.1817 3.2278 20.8347 3.33033 21.5011C3.36694 21.7397 3.7496 21.7251 3.79781 21.5011C3.93757 20.8542 3.3169 20.1585 2.85125 19.7923C2.33739 19.3907 1.6563 19.4176 1.04296 19.4939C0.737819 19.5323 0.733547 20.0175 1.04296 19.9791C1.49336 19.9229 2.04567 19.8527 2.45334 20.1011C2.68413 20.2552 2.88356 20.4518 3.04105 20.6803C3.16921 20.8554 3.38037 21.1417 3.33033 21.373H3.79781C3.72091 20.8743 3.99555 20.3501 4.28116 19.9607C4.43164 19.7574 4.61163 19.5776 4.81517 19.4273C4.97811 19.3053 5.18561 19.1393 5.39311 19.1124C5.69276 19.074 5.7129 18.6102 5.39311 18.6242C4.74986 18.6596 3.99798 18.3569 3.59763 17.8375C3.23146 17.3664 3.08255 16.7537 2.83173 16.2215C2.72492 15.9951 2.38194 16.1177 2.38011 16.3436C2.37896 16.9568 2.27584 17.5657 2.07497 18.1451C1.87967 18.6944 1.53791 19.2583 0.976444 19.4878C0.690828 19.6031 0.815327 20.0724 1.10521 19.9553L1.10705 19.9583Z" fill="#FBA41C"/>
<path d="M6.28515 15.5692C6.51698 15.5021 6.71895 15.3578 6.85766 15.1602C6.99638 14.9627 7.06353 14.7238 7.04802 14.4829C7.16206 14.8086 7.35704 15.1 7.61465 15.3296C7.87226 15.5593 8.18402 15.7196 8.52064 15.7956C8.37051 15.6827 8.15447 15.7737 8.00068 15.8799C7.65313 16.1194 7.35754 16.4266 7.13162 16.7831C7.0899 16.5583 6.98903 16.3486 6.8394 16.1757C6.68977 16.0028 6.49678 15.8729 6.28027 15.7993" fill="#FDE41B"/>
<path d="M6.34919 15.8021C6.91737 15.6434 7.33359 15.0764 7.29026 14.4832L6.81362 14.5443C6.94035 14.9097 7.15733 15.2372 7.44444 15.4963C7.73154 15.7555 8.07946 15.9379 8.45591 16.0267C8.51186 16.0394 8.57053 16.0321 8.62161 16.0059C8.67268 15.9797 8.7129 15.9364 8.73519 15.8835C8.75748 15.8306 8.76042 15.7715 8.7435 15.7167C8.72658 15.6619 8.69088 15.6147 8.64266 15.5836C8.29113 15.3541 7.90238 15.6336 7.63019 15.8546C7.35306 16.0832 7.11408 16.3545 6.92225 16.6583L7.36532 16.7193C7.31147 16.4543 7.18874 16.2082 7.0095 16.0057C6.83025 15.8032 6.60082 15.6515 6.34431 15.5659C6.04832 15.4646 5.92138 15.9321 6.21554 16.0334C6.39108 16.0968 6.54668 16.2057 6.66652 16.3488C6.78636 16.4919 6.86618 16.6642 6.89784 16.8481C6.93873 17.0654 7.23717 17.0684 7.34092 16.9091C7.48465 16.6848 7.65812 16.4809 7.85661 16.3031C7.94869 16.2183 8.0477 16.1414 8.1526 16.073C8.21912 16.0303 8.32165 15.9589 8.39671 16.0084L8.58346 15.5653C8.2876 15.4997 8.01307 15.3605 7.78531 15.1605C7.55754 14.9606 7.38391 14.7065 7.2805 14.4216C7.26423 14.3656 7.22845 14.3173 7.17964 14.2854C7.13084 14.2535 7.07222 14.2401 7.0144 14.2477C6.95657 14.2557 6.90354 14.2842 6.86491 14.328C6.82628 14.3717 6.80462 14.4279 6.80386 14.4863C6.81932 14.6743 6.76956 14.8618 6.66297 15.0174C6.55638 15.1731 6.39946 15.2872 6.21859 15.3407C5.91894 15.4243 6.04649 15.89 6.34797 15.8082L6.34919 15.8021Z" fill="#FBA41C"/>
<path d="M8.03632 21.7453C8.26578 21.4402 8.79551 21.4676 9.02498 21.7734C9.25445 22.0791 9.16352 22.5594 8.86386 22.7968C8.62524 22.9872 8.24869 23.019 8.02166 22.8145C7.79463 22.6101 7.82332 22.1701 8.10345 22.0474" fill="#FDE41B"/>
<path d="M8.24531 21.8675C8.24531 21.8675 8.20991 21.9048 8.22822 21.8907C8.23301 21.8861 8.2375 21.8813 8.24165 21.8761C8.25203 21.8645 8.26301 21.8547 8.27399 21.8437C8.27926 21.8402 8.28417 21.8361 8.28864 21.8315C8.28864 21.8315 8.2447 21.862 8.26545 21.8492C8.2862 21.8364 8.29352 21.8297 8.30817 21.8212C8.32282 21.8126 8.33075 21.8089 8.34234 21.8028C8.38751 21.7784 8.29902 21.8169 8.33746 21.8028C8.36601 21.7925 8.39516 21.784 8.42474 21.7772C8.43767 21.7754 8.4505 21.773 8.46319 21.7699C8.46319 21.7699 8.40582 21.7748 8.43145 21.7742H8.45769C8.48633 21.772 8.5151 21.772 8.54374 21.7742C8.5529 21.7742 8.60965 21.7809 8.56449 21.7742C8.51933 21.7675 8.56755 21.7742 8.57792 21.7742C8.60829 21.7802 8.63825 21.7882 8.66763 21.798L8.68655 21.8047C8.72317 21.8169 8.66824 21.7974 8.66519 21.7955C8.67556 21.8022 8.6896 21.8065 8.70119 21.8126C8.72847 21.8269 8.75478 21.843 8.77992 21.8608C8.8141 21.8834 8.74209 21.8267 8.77199 21.8553L8.80556 21.8871C8.81471 21.8962 8.82264 21.9072 8.83241 21.9164C8.85377 21.9371 8.8019 21.873 8.81898 21.8987C8.82448 21.9066 8.83058 21.9145 8.83546 21.9225C8.85205 21.9482 8.86713 21.9749 8.88062 22.0024C8.89954 22.0402 8.86476 21.9554 8.88062 21.9963C8.88612 22.014 8.89222 22.0317 8.89771 22.05C8.90321 22.0683 8.90442 22.0769 8.90747 22.0909C8.91052 22.1049 8.91907 22.1587 8.91175 22.1141C8.90443 22.0695 8.91175 22.1208 8.91175 22.1312C8.91175 22.1416 8.91175 22.1641 8.91175 22.1806C8.91175 22.1971 8.91175 22.2136 8.91175 22.23C8.91175 22.2465 8.90504 22.2911 8.91175 22.2477C8.91846 22.2044 8.91174 22.2618 8.90686 22.2716C8.90198 22.2813 8.89954 22.3045 8.89527 22.3204C8.88734 22.3503 8.87696 22.3814 8.86659 22.4089C8.85133 22.4485 8.89039 22.3576 8.86659 22.4089C8.85926 22.4241 8.85194 22.4388 8.8434 22.4534C8.82814 22.4803 8.81044 22.5059 8.79274 22.5315C8.77504 22.5572 8.80983 22.5102 8.80922 22.5108C8.80861 22.5114 8.80006 22.5218 8.79518 22.5273C8.7903 22.5328 8.77016 22.5559 8.75673 22.5694L8.725 22.5987L8.70364 22.617C8.68472 22.6335 8.72377 22.6017 8.72316 22.6017C8.69265 22.6133 8.66214 22.642 8.63284 22.6573C8.62003 22.664 8.60477 22.6689 8.59196 22.6768C8.59196 22.6768 8.63956 22.6591 8.61515 22.667L8.58646 22.6768C8.55542 22.6877 8.5236 22.6963 8.49126 22.7024C8.48108 22.7028 8.47101 22.7047 8.46135 22.7079C8.46135 22.7079 8.51445 22.7024 8.4882 22.7036L8.44365 22.7073H8.39117C8.38018 22.7073 8.32343 22.7006 8.36432 22.7073C8.40521 22.714 8.34967 22.7073 8.33807 22.7018C8.32648 22.6963 8.30939 22.6951 8.29536 22.6908C8.28132 22.6865 8.23433 22.6664 8.26911 22.6829C8.3039 22.6994 8.25446 22.675 8.24531 22.6701C8.23616 22.6652 8.21663 22.6511 8.20137 22.6432C8.18611 22.6353 8.2209 22.6585 8.2209 22.6591C8.21549 22.6539 8.20979 22.649 8.20381 22.6444L8.17574 22.6182C8.17057 22.6118 8.16507 22.6057 8.15926 22.5999C8.14034 22.5822 8.18733 22.6426 8.17512 22.62C8.16292 22.5974 8.14583 22.5645 8.12935 22.5401C8.12935 22.5401 8.14767 22.5926 8.14217 22.5694C8.14217 22.5614 8.13668 22.5535 8.13424 22.5462C8.1318 22.5389 8.12508 22.5144 8.12142 22.498L8.11776 22.4803C8.11044 22.4473 8.12142 22.5022 8.11776 22.5077C8.11865 22.4913 8.11865 22.4748 8.11776 22.4583C8.11776 22.4443 8.11776 22.4296 8.11776 22.415C8.11776 22.4003 8.11776 22.3991 8.11776 22.3906C8.11776 22.3631 8.10616 22.4455 8.1141 22.4186C8.12203 22.3918 8.12813 22.3576 8.13729 22.3314C8.13729 22.3234 8.14949 22.3008 8.13729 22.3381C8.12508 22.3753 8.13729 22.3417 8.13729 22.3344C8.13729 22.3271 8.15132 22.3112 8.15865 22.299C8.18367 22.2581 8.12752 22.3314 8.15254 22.3063L8.18611 22.2734C8.19161 22.2673 8.21114 22.2526 8.18001 22.277C8.14889 22.3015 8.18001 22.277 8.18489 22.277C8.1986 22.2686 8.21287 22.261 8.22761 22.2545C8.34356 22.2014 8.38079 22.025 8.31488 21.9225C8.28121 21.8682 8.22798 21.8289 8.16619 21.8128C8.1044 21.7967 8.03878 21.8049 7.98289 21.8358C7.63319 21.9963 7.56056 22.4522 7.70276 22.7744C7.86449 23.1406 8.32221 23.2627 8.6835 23.1559C8.86381 23.1013 9.02504 22.9969 9.14857 22.8547C9.2721 22.7125 9.35291 22.5383 9.38167 22.3521C9.4142 22.1553 9.38831 21.9533 9.30721 21.7711C9.2326 21.6093 9.10638 21.4769 8.94836 21.3946C8.76032 21.2985 8.54618 21.2659 8.33807 21.3018C8.134 21.3384 7.95203 21.4525 7.83032 21.6204C7.80671 21.6621 7.79592 21.7099 7.79929 21.7577C7.80266 21.8055 7.82004 21.8513 7.84927 21.8893C7.8785 21.9274 7.91827 21.9559 7.96363 21.9715C8.00899 21.987 8.05793 21.9889 8.10434 21.9768C8.16326 21.9563 8.214 21.9174 8.24897 21.8657L8.24531 21.8675Z" fill="#FBA41C"/>
<path d="M54.0266 12.4692C54.3073 12.219 54.8199 12.4381 54.895 12.8067C54.9701 13.1753 54.6631 13.5512 54.2945 13.6257C54.0192 13.6812 53.7001 13.5775 53.5621 13.3315C53.4242 13.0856 53.5505 12.7157 53.8246 12.6535" fill="#FDE41B"/>
<path d="M54.1977 12.637C54.2386 12.6022 54.1507 12.6626 54.1977 12.637L54.2233 12.6211C54.2288 12.6211 54.2733 12.5967 54.2349 12.6144C54.1964 12.6321 54.241 12.6144 54.2471 12.6113C54.2532 12.6083 54.3307 12.593 54.2874 12.6003C54.244 12.6077 54.2923 12.6003 54.2996 12.6003C54.3069 12.6003 54.3295 12.6003 54.3447 12.6003C54.36 12.6003 54.3997 12.6083 54.3576 12.6003C54.3154 12.5924 54.3643 12.6003 54.3704 12.6003C54.3957 12.6055 54.4205 12.6124 54.4448 12.6211C54.4485 12.6211 54.4729 12.6321 54.4735 12.6315C54.4638 12.6406 54.4241 12.6058 54.4656 12.6315L54.5394 12.6748C54.5785 12.6992 54.5254 12.6669 54.5278 12.665C54.5403 12.6744 54.5521 12.6846 54.5632 12.6955C54.5797 12.7108 54.5937 12.7316 54.6114 12.7462C54.6291 12.7609 54.5797 12.6968 54.6066 12.7395L54.623 12.7657C54.631 12.7785 54.6377 12.7926 54.6456 12.806C54.6682 12.8463 54.6316 12.7572 54.6456 12.806C54.6502 12.8295 54.6561 12.8527 54.6633 12.8756C54.6749 12.9085 54.6633 12.8182 54.6633 12.8756C54.6633 12.8878 54.6633 12.9 54.6633 12.9122C54.6633 12.9244 54.6676 12.9586 54.6633 12.9671C54.6633 12.9671 54.6749 12.9061 54.6633 12.9568C54.6556 12.9926 54.646 13.0281 54.6346 13.0629C54.6304 13.0758 54.6145 13.1002 54.6383 13.0562C54.631 13.0697 54.6249 13.0837 54.6175 13.0971C54.6041 13.1221 54.5889 13.1447 54.5742 13.1691C54.5431 13.2198 54.5968 13.1447 54.5742 13.1691C54.5638 13.1813 54.5541 13.1935 54.5437 13.2051C54.5199 13.2308 54.4937 13.2521 54.4686 13.2765C54.4436 13.301 54.5156 13.2454 54.4656 13.2765L54.4345 13.2979C54.4076 13.315 54.3801 13.3296 54.3521 13.3443C54.299 13.373 54.385 13.3345 54.3521 13.3443L54.3075 13.3595C54.2776 13.3686 54.2473 13.3762 54.2166 13.3821C54.1555 13.3949 54.2691 13.3821 54.2087 13.3821H54.1714C54.1407 13.3829 54.1099 13.3819 54.0793 13.3791C54.031 13.3791 54.0842 13.3791 54.0884 13.3791C54.0699 13.3781 54.0516 13.3744 54.0341 13.3681C54.0042 13.3608 53.9731 13.3504 53.9468 13.3406C53.9987 13.3583 53.9603 13.3467 53.9468 13.3406C53.9334 13.3345 53.9194 13.3266 53.9066 13.3193C53.8937 13.3119 53.8223 13.254 53.8675 13.2955C53.8474 13.2772 53.8278 13.2595 53.8095 13.2393C53.7912 13.2192 53.7827 13.1942 53.8095 13.2393C53.8004 13.2234 53.7894 13.2094 53.7808 13.1929C53.7723 13.1765 53.7717 13.149 53.7723 13.1783C53.7802 13.1972 53.7802 13.1972 53.7723 13.1783C53.7723 13.1679 53.7662 13.1575 53.7637 13.1472C53.7613 13.1368 53.7564 13.116 53.757 13.116C53.7577 13.116 53.7613 13.1771 53.757 13.116C53.757 13.1026 53.757 13.0892 53.757 13.0751C53.757 13.0611 53.757 13.0593 53.757 13.0507C53.757 13.0239 53.757 13.0294 53.757 13.0672C53.757 13.0672 53.7747 12.9964 53.7772 12.9885C53.79 12.936 53.7509 13.0349 53.7772 12.9885C53.7851 12.9745 53.7918 12.9598 53.7998 12.9464C53.8051 12.9373 53.811 12.9285 53.8175 12.9201C53.7949 12.9476 53.7918 12.9519 53.8083 12.9317L53.8187 12.9201C53.8187 12.9201 53.8516 12.8872 53.8528 12.8884C53.8541 12.8896 53.8022 12.9214 53.8528 12.8884L53.8803 12.8738C53.8461 12.8872 53.8412 12.8896 53.8663 12.8805L53.8968 12.8719C53.9585 12.8545 54.0109 12.8135 54.0427 12.7578C54.0744 12.7021 54.083 12.6361 54.0664 12.5741C54.0482 12.5128 54.007 12.4608 53.9514 12.4292C53.8958 12.3976 53.83 12.3887 53.768 12.4044C53.3982 12.4978 53.2188 12.9067 53.292 13.2588C53.3726 13.6384 53.7717 13.8582 54.1348 13.8661C54.3217 13.8667 54.5052 13.8164 54.6656 13.7206C54.826 13.6248 54.9573 13.4871 55.0454 13.3223C55.215 12.9958 55.1863 12.5845 54.9007 12.3318C54.6151 12.0792 54.1684 12.0163 53.8632 12.2812C53.8181 12.3269 53.7928 12.3885 53.7928 12.4527C53.7928 12.5168 53.8181 12.5785 53.8632 12.6241C53.9094 12.6682 53.9708 12.6928 54.0347 12.6928C54.0986 12.6928 54.16 12.6682 54.2062 12.6241L54.1977 12.637Z" fill="#FBA41C"/>
<path d="M8.39604 40.7558C9.42804 41.8476 10.7011 42.7698 12.1579 43.197C13.6921 43.6437 15.3027 43.421 16.6874 42.6349C17.7194 42.049 18.5885 41.2099 19.333 40.2945C19.5357 40.0442 19.1811 39.6842 18.976 39.9374C17.8427 41.332 16.3805 42.5769 14.5539 42.8717C13.1575 43.0969 11.7551 42.6642 10.5778 41.9239C9.90753 41.4943 9.29422 40.9816 8.75245 40.3982C8.52908 40.1614 8.17267 40.5203 8.39604 40.7552V40.7558Z" fill="#9C5043"/>
<path d="M13.1309 30.2743C10.013 30.1822 7.19219 32.5599 6.77414 35.6559C6.62696 36.7584 6.77174 37.8803 7.19402 38.9093C7.31608 39.2059 7.80431 39.0759 7.68225 38.7757C7.0506 37.2402 7.06159 35.474 7.81102 33.9824C8.43956 32.7333 9.49264 31.7491 10.7813 31.2062C11.526 30.8988 12.3275 30.7532 13.1327 30.779C13.4574 30.7888 13.4574 30.2841 13.1327 30.2743H13.1309Z" fill="#9C5043"/>
<path d="M8.34492 38.509C8.04847 38.5457 7.75993 38.6302 7.49052 38.7593C7.25677 38.8722 7.01388 39.0241 6.85032 39.228C6.66724 39.455 6.54518 39.7607 6.69104 40.0396C6.8369 40.3185 7.15669 40.3851 7.42949 40.4461C7.76984 40.5222 8.11836 40.5557 8.46698 40.5456C8.50116 40.5473 8.53533 40.542 8.56741 40.5301C8.59949 40.5181 8.62882 40.4998 8.6536 40.4762C8.67839 40.4526 8.69813 40.4242 8.71162 40.3928C8.7251 40.3613 8.73205 40.3274 8.73205 40.2932C8.73205 40.259 8.7251 40.2251 8.71162 40.1937C8.69813 40.1622 8.67839 40.1338 8.6536 40.1102C8.62882 40.0866 8.59949 40.0683 8.56741 40.0564C8.53533 40.0445 8.50116 40.0392 8.46698 40.0409C8.34492 40.0445 8.21859 40.0409 8.09409 40.0354C8.03306 40.0317 7.97203 40.0262 7.91101 40.0189L7.86768 40.014H7.86401C7.83045 40.0097 7.79749 40.0042 7.76453 39.9988C7.64121 39.9783 7.519 39.9516 7.39836 39.9188C7.34466 39.9042 7.29034 39.8895 7.23785 39.8706L7.2049 39.8584C7.20979 39.8584 7.23725 39.8736 7.21223 39.8584C7.19941 39.8517 7.14204 39.8157 7.17621 39.8425C7.16832 39.8345 7.15997 39.827 7.1512 39.8199C7.12312 39.8022 7.1634 39.8462 7.1512 39.8199C7.14673 39.8107 7.14141 39.8019 7.13533 39.7937C7.13533 39.7937 7.15242 39.8352 7.14143 39.8077C7.13935 39.7982 7.1367 39.7889 7.1335 39.7797C7.1335 39.7839 7.1335 39.826 7.1335 39.7986C7.1335 39.7711 7.13716 39.7253 7.12862 39.776C7.1328 39.7523 7.1385 39.7288 7.1457 39.7058C7.14936 39.6954 7.15303 39.6857 7.15608 39.6753C7.15608 39.6802 7.13838 39.7101 7.15241 39.6857C7.17743 39.6436 7.1994 39.6008 7.22809 39.5636C7.20185 39.6002 7.24579 39.5441 7.25433 39.5349C7.26288 39.5258 7.28546 39.5014 7.30194 39.4861C7.31842 39.4709 7.33428 39.4556 7.35137 39.4409L7.377 39.4202C7.35198 39.4397 7.39104 39.4104 7.39897 39.4049C7.49129 39.3385 7.58839 39.2789 7.68947 39.2267C7.73341 39.2035 7.81153 39.1657 7.83716 39.1566L7.85547 39.1492L7.90429 39.1309C7.93725 39.1187 7.97021 39.1077 8.00377 39.0974C8.06175 39.079 8.12095 39.0626 8.18076 39.0485C8.21432 39.0406 8.24849 39.0339 8.28328 39.0272L8.32173 39.0205C8.32844 39.0205 8.38276 39.0107 8.34553 39.0162C8.47552 38.9991 8.60429 38.9124 8.59758 38.7641C8.59209 38.6421 8.48529 38.4932 8.34553 38.5115L8.34492 38.509Z" fill="#9C5043"/>
<path d="M14.6765 32.4993C14.6765 32.4523 14.6765 32.4053 14.6826 32.3589L14.6881 32.3065C14.6881 32.2949 14.6881 32.2833 14.6923 32.2717C14.687 32.3095 14.687 32.3144 14.6923 32.2863C14.7056 32.2055 14.7231 32.1254 14.7448 32.0465C14.7576 32.0019 14.7717 31.9574 14.7881 31.9134C14.7936 31.8969 14.8004 31.8805 14.8065 31.864C14.8126 31.8475 14.815 31.842 14.8199 31.8316C14.8034 31.8701 14.8004 31.8768 14.8113 31.8524C14.8223 31.828 14.8419 31.7914 14.8596 31.7651C14.8821 31.7273 14.8211 31.8146 14.8644 31.7651C14.8931 31.7303 14.8132 31.7963 14.8644 31.7651C14.9157 31.734 14.8144 31.7755 14.8577 31.7651C14.9224 31.7517 14.8089 31.7651 14.8528 31.7651C14.8638 31.7651 14.8797 31.7651 14.8907 31.7651C14.8449 31.7578 14.8351 31.7572 14.8614 31.7651L14.8864 31.7718C14.9108 31.7804 14.9035 31.7767 14.8632 31.7609C14.8714 31.7642 14.8793 31.7681 14.887 31.7724C14.8986 31.7786 14.9096 31.7865 14.9212 31.7932C14.9328 31.7999 14.9358 31.803 14.9023 31.7779L14.9218 31.7956C14.9297 31.803 14.9645 31.8475 14.9383 31.8097C14.912 31.7718 14.9462 31.8243 14.9505 31.8316C14.9548 31.839 14.9676 31.8774 14.9792 31.8872C14.9639 31.8512 14.9615 31.8457 14.9706 31.8707L14.9761 31.8854C14.9822 31.9055 14.9883 31.9256 14.9932 31.9464C14.9973 31.9833 15.0042 32.0198 15.014 32.0556C15.0085 32.0147 15.0079 32.008 15.014 32.0355L15.0176 32.0672C15.0176 32.0886 15.0219 32.1093 15.0243 32.1282C15.0261 32.1947 15.0524 32.2582 15.0982 32.3065C15.1456 32.3535 15.2096 32.38 15.2764 32.3803C15.4021 32.3748 15.5425 32.2686 15.529 32.1282C15.52 31.9494 15.4786 31.7736 15.407 31.6095C15.367 31.5302 15.3111 31.4599 15.2428 31.4032C15.1744 31.3465 15.095 31.3045 15.0097 31.2799C14.9173 31.2529 14.8192 31.2527 14.7267 31.2795C14.6343 31.3063 14.5514 31.359 14.4879 31.4313C14.3798 31.5742 14.3028 31.7383 14.2621 31.9128C14.2083 32.1038 14.1797 32.3009 14.1772 32.4993C14.1777 32.566 14.2044 32.6298 14.2516 32.677C14.2988 32.7242 14.3626 32.7509 14.4293 32.7513C14.4958 32.7501 14.5593 32.7232 14.6064 32.6762C14.6535 32.6292 14.6805 32.5658 14.682 32.4993H14.6765Z" fill="#9C5043"/>
<path d="M10.0398 33.7952C10.1441 33.66 10.2729 33.5455 10.4194 33.4577C10.5414 33.3833 10.73 33.2746 10.8728 33.2881C10.8667 33.2881 10.9497 33.3143 10.9204 33.3003C10.8911 33.2862 10.9363 33.3106 10.9418 33.3149C10.9644 33.3332 10.9253 33.2771 10.9516 33.3265C10.9516 33.3314 10.9802 33.3662 10.9552 33.3265C10.9638 33.3393 10.9992 33.4114 10.9833 33.3717C10.9978 33.4113 11.0087 33.4521 11.0156 33.4937C11.0089 33.4565 11.0193 33.5548 11.0193 33.5676C11.0199 33.6065 11.0181 33.6454 11.0138 33.6841C11.0187 33.6433 11.0047 33.7269 11.001 33.7415C10.9894 33.7897 10.9754 33.8367 10.9595 33.8837C10.8513 34.1868 10.6544 34.4503 10.3944 34.6399C10.2602 34.74 10.1091 34.8151 9.94824 34.8614C9.88365 34.8835 9.81426 34.8878 9.74745 34.8736C9.73291 34.8682 9.71901 34.8612 9.70596 34.8529C9.66812 34.8138 9.68704 34.8321 9.69314 34.8413C9.69314 34.8413 9.66079 34.7705 9.67239 34.8034C9.65997 34.7717 9.65355 34.738 9.65347 34.7039C9.65122 34.6554 9.65327 34.6068 9.65958 34.5587C9.65469 34.5935 9.66629 34.5294 9.66751 34.5245C9.673 34.4971 9.67971 34.4696 9.68643 34.4421C9.70046 34.3872 9.71633 34.3335 9.73525 34.2798C9.80812 34.0757 9.92052 33.888 10.066 33.7275C10.112 33.6794 10.1377 33.6155 10.1377 33.549C10.1377 33.4825 10.112 33.4185 10.066 33.3705C10.0184 33.3239 9.95442 33.2979 9.88782 33.2979C9.82123 33.2979 9.75727 33.3239 9.70962 33.3705C9.36724 33.7519 9.06942 34.3286 9.16585 34.8559C9.18991 34.9944 9.2592 35.1211 9.36289 35.216C9.46657 35.311 9.59881 35.3689 9.73891 35.3808C9.9934 35.4076 10.254 35.3051 10.4713 35.1848C10.9018 34.9442 11.2348 34.5609 11.4129 34.101C11.5686 33.7061 11.596 33.1245 11.1841 32.8731C10.8991 32.6985 10.5457 32.8218 10.2735 32.9597C10.0084 33.0997 9.77879 33.2985 9.60221 33.5407C9.51982 33.6494 9.58512 33.8227 9.69253 33.8855C9.82191 33.9612 9.95556 33.9045 10.038 33.7952H10.0398Z" fill="#9C5043"/>
<path d="M8.33847 36.0549L8.3995 36.003L8.34884 36.0427C8.46115 35.9563 8.58425 35.8849 8.71501 35.8303L8.65398 35.8559C8.74044 35.8165 8.83147 35.788 8.92496 35.7711L8.85783 35.7803C8.86635 35.7794 8.87493 35.7794 8.88345 35.7803L8.81632 35.7711C8.82469 35.7717 8.83292 35.7736 8.84074 35.7766L8.77971 35.7516C8.78689 35.7542 8.79351 35.7581 8.79923 35.7632L8.74797 35.7235C8.75306 35.728 8.75756 35.7332 8.7614 35.7388L8.72173 35.6875C8.72538 35.6931 8.72845 35.699 8.73088 35.7052L8.70525 35.6442C8.71001 35.6574 8.71328 35.6711 8.71501 35.6851L8.70587 35.6179C8.71502 35.718 8.70587 35.8212 8.70587 35.9231V36.2471C8.7065 36.3138 8.73326 36.3775 8.78039 36.4247C8.82752 36.4718 8.89126 36.4986 8.95792 36.4992C9.02443 36.4979 9.08788 36.471 9.13498 36.424C9.18207 36.377 9.20916 36.3137 9.21057 36.2471V35.7589C9.21707 35.677 9.21048 35.5946 9.19104 35.5148C9.16917 35.4441 9.12436 35.3826 9.06369 35.3402C9.00302 35.2978 8.92994 35.2767 8.85599 35.2804C8.77057 35.2891 8.68677 35.3097 8.607 35.3415C8.52628 35.3697 8.4474 35.4029 8.37082 35.441C8.22978 35.5119 8.09833 35.6005 7.97962 35.7046C7.93233 35.752 7.90576 35.8162 7.90576 35.8831C7.90576 35.95 7.93233 36.0142 7.97962 36.0616C8.02774 36.1075 8.09166 36.1331 8.15812 36.1331C8.22459 36.1331 8.28852 36.1075 8.33664 36.0616L8.33847 36.0549Z" fill="#9C5043"/>
<path d="M11.3065 31.318C11.1411 31.5591 11.01 31.822 10.9171 32.0992C10.8951 32.1605 10.8906 32.2267 10.9042 32.2905C10.9178 32.3542 10.9489 32.4129 10.994 32.4599C11.0734 32.541 11.1832 32.5606 11.2906 32.5728C11.4224 32.5863 11.5556 32.5696 11.68 32.5239C11.8376 32.4701 11.9783 32.3756 12.0877 32.2499C12.1336 32.2017 12.1601 32.1383 12.1621 32.0717C12.1614 32.0049 12.1347 31.941 12.0877 31.8935C11.9949 31.8081 11.821 31.7849 11.7313 31.8935C11.7047 31.9254 11.6755 31.955 11.644 31.982C11.6281 31.9948 11.6013 32.0052 11.6586 31.9704L11.6373 31.9857C11.6191 31.998 11.6004 32.0094 11.5811 32.0198L11.5579 32.032C11.5512 32.032 11.5097 32.0534 11.5524 32.0357C11.5952 32.018 11.5524 32.0357 11.5457 32.0357L11.5213 32.0443C11.4798 32.058 11.4371 32.0678 11.3938 32.0735L11.4609 32.065C11.4001 32.0727 11.3386 32.0727 11.2778 32.065L11.3449 32.0742C11.325 32.068 11.3046 32.0637 11.2839 32.0613C11.2839 32.0613 11.3413 32.09 11.312 32.0723C11.339 32.0857 11.3596 32.1091 11.3694 32.1376C11.3901 32.1834 11.3974 32.1919 11.3907 32.1633L11.3999 32.2304C11.3984 32.2207 11.3984 32.2108 11.3999 32.2011L11.3907 32.2682C11.4084 32.203 11.4312 32.1394 11.4591 32.0778C11.4694 32.0528 11.467 32.0589 11.4517 32.0949L11.464 32.0656C11.4707 32.0516 11.4768 32.0369 11.4835 32.0229C11.4981 31.9918 11.5128 31.9619 11.528 31.9307C11.5904 31.8064 11.661 31.6863 11.7392 31.5713C11.7726 31.5135 11.7819 31.4449 11.765 31.3803C11.748 31.3157 11.7063 31.2604 11.6489 31.2265C11.5907 31.1943 11.5224 31.1857 11.4581 31.2025C11.3938 31.2193 11.3384 31.2602 11.3034 31.3168L11.3065 31.318Z" fill="#9C5043"/>
</svg>
