<svg width="1071" height="227" viewBox="0 0 1071 227" fill="none" xmlns="http://www.w3.org/2000/svg">
<path d="M39.9413 58.078C53.0768 56.9083 74.2244 109.206 74.2244 109.206L12.8049 113.332C12.8049 113.332 26.8058 59.2477 39.9413 58.078Z" fill="#FFCDAD"/>
<g filter="url(#filter0_i_2_5)">
<path d="M40.7142 70.5201C49.254 69.7596 63.0025 103.76 63.0025 103.76L23.0722 106.442C23.0722 106.442 32.1745 71.2805 40.7142 70.5201Z" fill="url(#paint0_linear_2_5)"/>
</g>
<path d="M1034.96 59.5223C1021.7 57.0745 995.159 108.311 995.159 108.311L1057.31 118.389C1057.31 118.389 1048.23 61.97 1034.96 59.5223Z" fill="#FFCDAD"/>
<g filter="url(#filter1_i_2_5)">
<path d="M1032.99 72.1192C1024.36 70.5279 1007.11 103.838 1007.11 103.838L1047.52 110.39C1047.52 110.39 1041.61 73.7106 1032.99 72.1192Z" fill="url(#paint1_linear_2_5)"/>
</g>
<path d="M658.861 173.998C658.526 170.357 657.124 166.571 653.843 164.589C650.807 162.76 646.739 162.801 644.28 165.574C641.679 168.509 642.04 172.966 641.864 176.586C641.551 182.834 639.901 192.058 632.257 192.35C632.597 189.867 632.667 187.355 632.464 184.857C631.614 174.626 628.992 164.024 623.823 155.06C631.558 148.881 637.461 138.333 641.011 129.705C645.333 119.2 647.338 107.934 646.444 96.5831C645.55 85.2321 642.122 73.903 636.256 64.07C629.918 53.4592 621.154 46.1512 611.447 39.0407C611.716 38.7804 612.074 38.3538 611.848 37.8959C607.457 28.2605 606.391 14.8927 595.98 10.7745C585.975 6.81934 576.117 15.7929 570.054 23.3581C563.499 21.6864 555.984 21.7209 549.497 21.7052C544.749 21.7052 540.126 22.0941 535.963 23.8819C534.147 18.048 529.098 13.359 524.318 9.80529C519.788 6.43982 514.045 4.92802 509.134 8.38132C504.115 11.9068 500.351 18.2268 497.657 23.6091C494.728 29.4368 493.006 35.7962 492.595 42.3058C485.889 50.4858 477.794 57.5147 472.082 66.5008C465.815 76.3382 461.732 87.4064 460.11 98.9574C457.25 120.091 463.971 141.445 479.578 156.208C483.597 160.029 488.123 163.278 493.028 165.865C495.703 167.264 498.815 168.779 501.989 169.739C500.273 178.433 499.702 186.99 500.649 195.841C501.239 201.358 501.728 210.191 507.71 212.819C509.472 213.594 510.614 213.446 511.737 215.187C512.455 216.316 512.678 217.561 513.638 218.587C514.996 219.967 516.831 220.775 518.766 220.845C518.97 221.132 519.253 221.353 519.58 221.482C519.908 221.612 520.265 221.643 520.61 221.573C522.458 221.237 525.663 219.559 527.893 217.417C533.203 219.032 540.126 220.24 545.395 218.496C545.756 222.573 549.513 225.732 553.757 224.854C556.827 224.226 559.051 221.542 559.882 218.534C578.752 225.061 600.528 220.826 616.798 209.516C617.622 208.942 618.407 208.349 619.169 207.744C619.375 207.938 619.628 208.075 619.902 208.142C620.177 208.209 620.465 208.204 620.737 208.127C623.766 207.372 626.432 205.573 628.265 203.046C635.052 205.216 643.069 203.328 648.558 198.915C655.684 193.175 659.702 183.116 658.861 173.998Z" fill="#F9F8F7"/>
<path d="M501.54 196.844C500.512 188.727 500.739 180.5 502.214 172.451C502.301 172.047 502.256 171.627 502.087 171.25C501.918 170.873 501.633 170.56 501.273 170.356C494.411 166.71 488.059 162.175 482.382 156.869C480.673 155.263 479.092 153.156 476.736 152.56C476.638 152.43 476.502 152.334 476.347 152.284C476.193 152.234 476.027 152.231 475.871 152.277L475.516 152.387C472.693 152.246 469.516 153.642 466.972 154.476C456.308 158.045 449.016 165.802 446.918 176.394C445.914 176.272 444.923 176.212 443.74 176.912C441.811 178.053 440.817 180.139 440.29 182.225C438.982 187.435 438.568 194.338 441.545 199.046C443.16 201.593 445.622 203.023 447.281 205.664C448.941 208.305 450.236 210.14 452.77 211.968C457.513 215.39 463.121 217.714 468.817 219.019C474.865 220.4 481.12 220.621 487.25 219.668C491.848 218.956 498.541 217.689 501.991 214.198C506.27 209.917 502.18 201.8 501.54 196.844Z" fill="#FDE41B"/>
<path d="M634.575 65.2547L634.481 65.2892C634.43 65.0643 634.35 64.847 634.242 64.6431C632.589 61.5079 630.638 58.5387 628.418 55.7762C626.865 53.6683 625.064 51.7549 623.054 50.0772C622.773 49.8304 622.429 49.6674 622.06 49.6067C618.779 45.2658 615.263 41.1914 610.599 38.378C610.607 38.2736 610.607 38.1688 610.599 38.0643C610.384 35.8741 609.931 33.7139 609.247 31.6219C608.043 25.9449 605.866 19.0759 601.441 15.149C598.436 10.0114 593.076 8.53097 585.608 10.7077C579.698 12.4328 576.32 17.1219 572.911 21.8392C569.502 26.5565 563.144 22.9715 558.449 22.4665C555.053 22.1322 551.631 22.1669 548.242 22.57C548.07 22.2563 547.888 21.9678 547.715 21.6635C547.022 20.4372 545.291 20.6348 544.632 21.7545C544.356 22.225 544.068 22.6954 543.782 23.1502C542.07 23.3572 540.367 23.6082 538.657 23.8559C536.687 24.1445 534.479 25.1545 533.341 23.4921C531.685 21.0739 531.66 16.9964 530.383 14.2708C527.874 8.87598 522.73 6.06254 516.808 6.80589C502.283 8.6282 496.302 28.0746 493.432 40.0027C493.37 40.3225 493.393 40.6527 493.498 40.9612C493.602 41.2696 493.785 41.5456 494.028 41.7623C486.067 48.3929 478.097 55.6382 472.204 64.1162C472.106 64.2382 472.045 64.3848 472.025 64.5398C472.006 64.6948 472.03 64.8521 472.094 64.9944C471.991 65.2169 471.944 65.4617 471.959 65.7066C471.975 65.9516 472.051 66.1888 472.181 66.3968C472.311 66.6047 472.492 66.7767 472.705 66.8972C472.919 67.0177 473.16 67.0827 473.405 67.0865C502.606 67.7765 530.929 51.6831 545.859 26.7541C546.019 26.697 546.168 26.6132 546.301 26.5063C554.622 41.4863 566.227 54.7537 581.207 63.376C597.746 72.8921 617.644 75.6083 635.97 70.0473C639.072 69.1064 637.551 64.1413 634.575 65.2547Z" fill="#C8B1AF"/>
<path d="M632.927 187.441C632.705 182.372 631.046 177.461 629.559 172.662L629.487 172.43C629.687 172.459 629.892 172.438 630.083 172.371C630.274 172.304 630.446 172.191 630.584 172.043C630.722 171.895 630.822 171.715 630.876 171.52C630.929 171.324 630.935 171.119 630.892 170.921C629.81 164.723 627.661 158.801 623.414 154.065C622.288 152.811 620.19 154.241 620.67 155.75C620.88 156.408 621.1 157.064 621.316 157.719C620.717 159.206 619.484 160.941 618.779 161.452C618.073 161.963 617.16 162.28 616.392 162.65C614.147 163.741 611.844 164.705 609.491 165.539C607.161 166.348 604.674 167.054 603.557 169.488C601.192 174.653 606.653 178.703 611.085 179.33C612.81 179.575 614.566 179.484 616.301 179.462C617.533 179.462 618.656 179.358 619.848 179.825C621.471 179.742 622.086 180.585 621.692 182.354C622.571 183.717 622.399 184.65 621.178 185.154C619.23 187.375 615.736 187.137 614.466 190.254C613.757 191.992 614.002 193.924 615.517 195.147C616.276 195.775 617.185 195.925 618.107 196.088C618.575 196.173 619.381 196.01 619.798 196.211C621.112 196.838 621.824 198.886 620.761 200.125C619.858 201.179 620.626 202.499 621.884 202.634C630.032 203.428 633.219 193.993 632.927 187.441Z" fill="#C8B1AF"/>
<path d="M643.881 197.531C641.999 196.464 640.431 195.138 640.19 192.845C639.986 190.9 636.943 190.963 637.138 192.936C637.451 196.107 639.587 199.507 642.893 200.178C643.227 200.246 643.574 200.192 643.872 200.027C644.17 199.862 644.399 199.596 644.519 199.277C644.638 198.957 644.639 198.606 644.522 198.286C644.405 197.966 644.178 197.698 643.881 197.531Z" fill="#C8B1AF"/>
<path d="M652.39 188.367C650.728 187.426 648.733 187.445 646.998 186.62C645.113 185.722 643.509 184.326 642.359 182.583C641.418 181.175 639.261 182.473 640.101 183.957C642.221 187.692 647.851 192.632 652.456 190.543C653.394 190.136 653.136 188.79 652.39 188.367Z" fill="#C8B1AF"/>
<path d="M657.472 177.648C652.067 178.078 647.472 175.929 642.627 173.756C640.663 172.874 639.076 175.766 641.058 176.745C645.653 179.038 653.266 183.94 658.278 180.327C659.354 179.546 659.009 177.526 657.472 177.648Z" fill="#C8B1AF"/>
<path d="M627.738 163.463C627.675 162.029 626.345 160.731 624.764 161.725C621.888 163.532 618.087 163.735 615.317 165.705C612.306 167.847 613.652 172.057 616.929 173.045C618.811 173.615 621.007 173.49 622.945 173.274C624.601 173.092 626.583 172.96 628.036 172.069C631.498 169.98 629.805 165.915 627.738 163.463Z" fill="#B28885"/>
<path d="M632.088 189.082C632.088 188.978 632.053 188.878 632.034 188.768C632.309 188.157 632.361 187.469 632.182 186.823C631.774 185.337 629.986 184.11 628.418 184.691C625.281 185.854 620.382 188.37 620.482 192.322C620.545 194.765 622.578 196.13 624.842 196.202C626.937 196.271 629.663 195.869 631.096 194.204C631.338 193.918 631.516 193.584 631.617 193.223C631.719 192.863 631.741 192.485 631.683 192.115C632.061 191.151 632.2 190.111 632.088 189.082Z" fill="#B28885"/>
<path d="M631.124 176.043C630.924 175.873 630.697 175.737 630.453 175.641C629.766 174.835 628.769 174.735 627.784 175.155C626.417 175.739 624.685 176.959 624.303 178.483C623.801 180.481 625.51 182.285 627.401 182.62C629.133 182.934 631.065 182.357 631.871 180.672C632.58 179.195 632.442 177.144 631.124 176.043Z" fill="#B28885"/>
<path d="M512.304 82.427C508.28 77.5999 500.119 77.4964 494.169 80.5671C490.666 81.9252 487.617 84.5818 487.303 88.493C487.303 88.5997 487.303 88.7 487.303 88.8067C487.237 89.131 487.189 89.4588 487.159 89.7884C486.271 99.0474 497.958 101.353 505.837 98.1754C508.261 97.7426 510.542 96.7766 512.248 95.0703C515.82 91.5229 515.403 86.1438 512.304 82.427Z" fill="#FDC0B1"/>
<path d="M593.255 82.2923C586.982 81.665 575.844 86.2788 580.125 94.3177C580.857 95.6695 581.866 96.8516 583.086 97.7867C584.128 99.0758 585.846 100.098 587.308 100.795C591.182 102.639 594.688 102.379 598.073 100.682C601.447 100.368 604.427 99.1134 605.826 96.5415C609.797 89.1989 599.133 82.8694 593.255 82.2923Z" fill="#FDC0B1"/>
<path d="M597.611 22.2247C596.557 19.9852 594.277 18.2696 591.714 18.5205C589.754 18.715 588.684 19.9884 587.668 21.3779C585.664 22.14 583.371 24.4328 583.851 26.7538C584.416 29.4795 588.506 30.273 590.729 30.8595C593.019 31.4649 596.89 32.6881 598.241 29.8527C599.22 27.7952 598.539 24.1976 597.611 22.2247ZM588.986 25.7439C589.07 25.6498 589.155 25.54 589.243 25.4302C589.451 25.4044 589.663 25.4097 589.87 25.4459C589.737 25.607 589.617 25.7791 589.512 25.9603C589.346 25.885 589.164 25.8191 588.986 25.7439Z" fill="#FDC0B1"/>
<path d="M520.221 21.7265C518.558 16.4415 512.916 13.8852 508.405 17.809C506.301 19.6439 505.441 22.3852 505.316 25.1045C505.212 27.3973 505.582 30.6311 508.305 31.1611C508.597 31.5341 509.025 31.7764 509.495 31.8352C509.965 31.8939 510.439 31.7644 510.814 31.4748C512.151 30.5182 513.712 29.9219 515.346 29.7434C516.601 29.6117 517.856 29.5897 518.957 28.8997C521.478 27.3126 520.986 24.1604 520.221 21.7265ZM513.731 23.2101C513.807 23.2251 513.883 23.2356 513.96 23.2414C514.06 23.3004 514.165 23.3508 514.274 23.392C513.931 23.6275 513.576 23.8442 513.21 24.0413C513.399 23.7652 513.568 23.4892 513.731 23.2069V23.2101Z" fill="#FDC0B1"/>
<g style="mix-blend-mode:multiply" opacity="0.43">
<path d="M655.235 170.065C654.445 169.077 653.115 170.184 653.306 171.191C654.561 177.868 653.087 184.235 649.31 189.963C645.86 195.21 637.206 196.549 630.824 197.07C631.718 191.703 632.304 186.061 631.363 180.807C631.5 180.342 631.554 179.855 631.523 179.371C631.053 172.496 630.284 165.517 628.744 158.773C628.189 156.339 627.229 153.993 625.705 152.187C626.778 149.882 628.149 147.728 629.782 145.779C630.213 145.295 630.499 144.7 630.608 144.062C630.717 143.424 630.644 142.767 630.397 142.169C640.942 129.98 646.999 113.626 643.749 97.6302C643.53 96.5449 641.93 96.8492 641.886 97.8811C641.162 115.8 632.066 132.728 617.638 143.307C602.401 154.476 583.763 158.202 565.358 160.1C561.228 160.527 560.942 165.946 564.69 166.837C564.895 166.983 565.134 167.076 565.384 167.107C572.39 168.123 579.369 168.832 586.429 169.303C592.935 169.751 599.684 169.782 605.685 172.662C612.617 176.034 618.034 181.882 620.865 189.053C621.179 192.845 620.84 196.622 619.586 200.05C616.618 203.745 612.757 206.727 608.558 208.942C594.65 216.278 577.233 216.535 561.949 214.87C559.471 214.6 558.885 218.815 561.356 219.261C578.751 222.297 599.794 220.951 614.937 210.915C615.646 210.444 616.33 209.945 617.007 209.434C617.048 209.427 617.087 209.418 617.126 209.406C620.664 208.258 622.772 205.642 624.027 202.506C624.215 202.258 624.413 202.013 624.595 201.759C625.127 202.139 625.74 202.39 626.386 202.493C627.032 202.597 627.693 202.549 628.318 202.355C628.422 202.362 628.527 202.362 628.631 202.355C637.046 201.728 648.73 200.379 653.444 192.378C657.057 186.237 660.197 176.253 655.235 170.065Z" fill="#F7C9B6"/>
</g>
<g style="mix-blend-mode:multiply" opacity="0.43">
<path d="M552.546 66.4628C552.64 65.3525 551.736 64.3488 550.717 64.0665C550.384 63.9741 550.036 63.9514 549.693 64C549.351 64.0486 549.023 64.1673 548.729 64.3488C548.226 64.495 547.778 64.7876 547.443 65.1894C547.087 65.5704 546.881 66.0672 546.862 66.5883C546.866 67.1132 547.075 67.6159 547.443 67.9903C547.875 68.3701 548.436 68.5709 549.011 68.5517C549.036 68.5517 549.058 68.5799 549.083 68.5894C549.622 68.8338 550.233 68.873 550.799 68.6998C551.366 68.5266 551.849 68.1528 552.16 67.6484C552.237 67.5262 552.297 67.3944 552.339 67.2563C552.449 67.0044 552.519 66.7366 552.546 66.4628Z" fill="#F7C9B6"/>
</g>
<g style="mix-blend-mode:multiply" opacity="0.43">
<path d="M511.674 166.634C492.4 159.128 473.198 147.454 465.363 127.299C464.645 125.457 461.835 126.132 462.34 128.133C467.543 148.755 485.136 160.988 503.622 169.033C503.498 169.066 503.381 169.123 503.279 169.202C503.177 169.28 503.092 169.379 503.03 169.491C501.502 172.173 500.743 175.168 501.646 178.173C501.701 178.353 501.799 178.518 501.933 178.651C502.066 178.784 502.231 178.881 502.412 178.935C502.34 181.083 502.412 183.254 502.368 185.208C502.202 194.335 502.75 203.651 507.926 211.473C508.628 212.533 510.356 211.526 509.638 210.473C505.705 204.717 504.422 197.876 504.664 190.979C504.811 186.767 505.075 172.474 510.968 171.846C513.976 171.523 514.531 167.753 511.674 166.634Z" fill="#F7C9B6"/>
</g>
<g style="mix-blend-mode:multiply" opacity="0.43">
<path d="M552.712 222.256C550.99 219.694 548.678 217.74 549.466 214.333C549.98 212.116 546.643 211.178 546.044 213.392C545.997 213.571 545.959 213.759 545.921 213.944C545.692 213.821 545.432 213.766 545.172 213.784C542.123 213.96 539.175 214.725 536.101 214.606C533.658 214.503 529.022 214.719 527.451 212.395C526.287 210.673 523.16 210.667 522.67 213.022C522.3 214.804 521.73 216.058 520.161 217.206C517.743 218.994 519.935 223.043 522.576 221.34C523.932 220.495 525.105 219.387 526.027 218.081C531.55 221.328 540.843 219.521 545.765 216.827C546.031 220.337 547.91 223.981 551.614 224.194C552.555 224.235 553.248 223.043 552.712 222.256Z" fill="#F7C9B6"/>
</g>
<path d="M561.005 80.4107C560.443 79.0369 559.123 77.9423 557.533 78.4378C554.976 79.2377 553.665 78.3187 551.815 76.7159C550.689 75.7405 548.594 75.9726 548.245 77.6569C548.203 77.8737 548.133 78.0845 548.038 78.2842C547.56 78.2404 547.079 78.2247 546.599 78.2371C545.665 78.2613 544.738 78.4068 543.842 78.6699C543.663 78.5496 543.496 78.4131 543.343 78.2622C541.26 76.1482 537.384 78.946 539.131 81.5116C539.231 81.6559 539.331 81.797 539.444 81.9351C537.751 84.6481 537.678 88.4621 538.795 92.0032C538.929 94.3327 539.631 96.594 540.84 98.5899C543.236 102.413 550.72 105.042 554.111 101.259C556.933 100.61 559.499 99.0635 561.105 96.5167C564.285 91.4261 563.119 85.6048 561.005 80.4107Z" fill="#F36291"/>
<path d="M557.699 87.5561C551.288 84.3255 540.624 86.2231 537.491 93.252C536.722 94.9739 538.156 96.5767 539.686 96.2066C539.953 97.6431 540.988 98.9385 542.559 99.9171C546.088 102.113 550.46 102.448 554.387 101.263C557.326 100.375 562.229 98.5276 563.006 95.1872C563.825 91.737 560.428 88.9299 557.699 87.5561Z" fill="#F08FAB"/>
<path d="M492.074 174.971C490.737 172.424 487.275 172.148 484.772 172.775C483.491 173.128 482.301 173.75 481.281 174.6C480.26 175.45 479.432 176.507 478.853 177.702C478.097 179.271 478.972 181.67 481.027 181.491C482.232 181.384 483.429 181.195 484.609 180.924C485.758 180.8 486.899 180.613 488.027 180.362C489.282 180.121 490.537 179.914 491.478 178.948C491.98 178.43 492.308 177.768 492.415 177.055C492.522 176.342 492.402 175.613 492.074 174.971Z" fill="#FB7F1C"/>
<path d="M471.771 182.372C471.235 179.697 468.917 177.329 466.044 178.138C464.7 178.566 463.484 179.32 462.503 180.333C461.809 180.807 461.254 181.457 460.894 182.215C460.338 183.396 460.227 184.737 460.584 185.993C460.94 187.248 461.739 188.331 462.832 189.044C463.786 189.677 464.907 190.012 466.053 190.006C467.198 189.999 468.315 189.651 469.262 189.006C471.426 187.475 472.285 184.928 471.771 182.372Z" fill="#FFAD12"/>
<path d="M501.649 173.054C500.96 172.702 500.189 172.542 499.417 172.589C498.645 172.635 497.899 172.888 497.258 173.32C495.79 174.365 494.805 176.435 495.881 178.125C496.194 178.598 496.627 178.979 497.135 179.229C497.586 179.732 498.159 180.11 498.799 180.326C499.439 180.542 500.123 180.589 500.786 180.462C502.537 180.148 503.744 178.555 503.832 176.827C503.851 176.058 503.657 175.299 503.272 174.633C502.886 173.967 502.325 173.421 501.649 173.054Z" fill="#FFAD12"/>
<path d="M469.281 175.343L469.262 175.315C469.302 175.128 469.271 174.934 469.174 174.769C469.299 174.526 469.328 174.244 469.253 173.981C469.179 173.718 469.007 173.493 468.773 173.351C468.463 173.177 468.112 173.091 467.758 173.101C467.403 173.112 467.058 173.219 466.759 173.411C466.088 173.844 465.671 174.706 466.132 175.437C466.247 175.607 466.399 175.75 466.576 175.856C466.752 175.962 466.95 176.027 467.154 176.049C467.179 176.064 467.198 176.086 467.22 176.102C467.319 176.162 467.424 176.21 467.534 176.246C467.632 176.407 467.789 176.522 467.971 176.569C468.153 176.615 468.346 176.588 468.509 176.494L469.002 176.115C469.133 176.041 469.234 175.923 469.285 175.781C469.336 175.639 469.335 175.484 469.281 175.343Z" fill="white"/>
<path d="M494.805 166.438C494.457 166.128 494.015 165.942 493.549 165.912C493.083 165.882 492.621 166.009 492.236 166.272C491.905 166.482 491.631 166.77 491.437 167.111C491.243 167.452 491.135 167.834 491.122 168.226C491.115 168.582 491.203 168.934 491.376 169.244C491.55 169.555 491.803 169.814 492.11 169.995C492.396 170.149 492.716 170.229 493.04 170.229C493.365 170.229 493.685 170.149 493.97 169.995C494.341 169.791 494.621 169.455 494.755 169.054L494.789 169.029C495.133 168.687 495.328 168.222 495.331 167.737C495.334 167.251 495.145 166.785 494.805 166.438Z" fill="white"/>
<path d="M414.357 178.866C413.887 178.74 413.416 178.627 412.943 178.552C412.863 178.497 412.786 178.437 412.714 178.373C412.59 177.76 412.339 177.18 411.977 176.67C411.606 176.149 411.235 175.634 410.863 175.124C410.483 174.036 410.168 172.927 409.922 171.802C409.924 171.792 409.924 171.781 409.922 171.771C409.853 168.593 410.549 165.416 410.521 162.236C410.487 156.358 408.564 150.468 402.862 147.858C398.079 145.662 391.959 147.071 389.331 151.851C387.135 155.847 388.39 160.633 390.47 164.532C389.288 164.183 388.082 163.919 386.863 163.744C384.272 163.431 381.728 163.744 379.41 165.03C374.175 167.966 373.968 173.857 377.039 178.558C385.26 191.136 402.887 185.063 414.677 183.219C417.042 182.843 416.615 178.903 414.357 178.866Z" fill="#FE94C4"/>
<path d="M412.987 178.655C409.584 179.051 406.548 180.597 403.069 180.87C399.861 181.065 396.642 181.022 393.44 180.741C386.038 180.202 377.259 178.364 377.864 169.08C377.983 167.251 374.9 166.787 374.621 168.641C373.322 177.322 378.698 183.351 386.813 185.484C391.381 186.681 396.164 186.814 400.792 185.873C405.073 184.988 410.54 183.784 413.921 180.907C414.746 180.205 414.113 178.524 412.987 178.655Z" fill="#FE74AB"/>
<path d="M500.467 206.762C495.449 208.898 490.882 211.015 485.374 211.51C480.331 211.962 475.074 211.422 470.077 210.704C460.235 209.283 450.393 204.808 449.063 193.707C448.818 191.644 445.848 191.531 445.763 193.707C445.255 206.435 454.963 213.747 466.464 216.193C478.298 218.702 493.159 218.169 502.534 209.484C504.134 208.035 502.142 206.046 500.467 206.762Z" fill="#FDC01B"/>
<path d="M445.826 199.924C444.223 196.684 443.1 193.839 443.376 190.141C443.492 188.607 441.099 188.614 440.983 190.141C440.694 193.977 441.569 198.258 444.207 201.175C445.029 202.076 446.324 200.928 445.826 199.924Z" fill="#FDC01B"/>
<path d="M502.017 35.2139C492.389 40.6581 483.903 47.9108 477.025 56.5735C470.228 65.0711 465.052 74.746 461.754 85.1158C458.617 95.0899 457.331 105.741 458.495 116.167C459.671 126.718 463.316 136.912 469.36 145.65C476.21 155.562 485.748 163.303 496.393 168.829C497.911 169.615 499.451 170.362 501.013 171.069C502.478 171.734 503.761 169.56 502.284 168.892C491.334 163.927 481.294 156.907 473.788 147.432C467.391 139.282 463.154 129.649 461.471 119.426C459.8 109.449 460.555 99.1234 463.146 89.372C465.881 79.2133 470.472 69.6481 476.687 61.1591C482.955 52.5199 490.811 45.1528 499.834 39.4513C500.969 38.7393 502.12 38.0587 503.284 37.4001C504.696 36.6065 503.428 34.4298 502.011 35.2265L502.017 35.2139Z" fill="#9C5043"/>
<path d="M574.514 24.1294C568.649 22.1973 562.438 21.3065 556.288 20.9678C549.479 20.5819 542.648 20.949 535.919 22.0624C532.209 22.6685 528.556 23.5823 524.998 24.7943C523.477 25.3181 524.129 27.7552 525.669 27.222C531.86 25.086 538.372 23.9757 544.896 23.546C551.387 23.0871 557.908 23.347 564.342 24.3207C567.562 24.8086 570.738 25.5576 573.836 26.5602C575.383 27.0683 576.032 24.6375 574.508 24.1294H574.514Z" fill="#9C5043"/>
<path d="M623.538 154.417C630.968 148.003 637.05 140.055 641.027 131.066C644.703 122.685 646.677 113.658 646.836 104.509C647.203 86.4708 640.983 68.3982 629.917 54.1898C623.81 46.3486 616.117 39.696 607.253 35.1481C605.813 34.4079 604.537 36.5815 605.998 37.3217C621.405 45.232 632.972 59.4843 639.135 75.5275C645.449 91.9534 646.321 110.544 639.976 127.098C636.175 137.013 629.789 145.713 621.784 152.635C620.555 153.699 622.346 155.458 623.566 154.417H623.538Z" fill="#9C5043"/>
<path d="M500.332 170.049C500.251 176.297 499.316 182.495 499.078 188.736C498.858 194.771 499.225 201.129 502.057 206.586C503.677 209.634 506.039 212.223 508.926 214.114C510.278 215.023 511.539 212.84 510.2 211.94C499.705 204.899 501.273 190.841 502.214 179.885C502.5 176.614 502.795 173.336 502.842 170.049C502.864 168.424 500.332 168.424 500.332 170.049Z" fill="#9C5043"/>
<path d="M622.851 153.849C625.84 163.293 630.589 172.618 631.222 182.642C631.536 187.661 630.595 192.588 628.12 196.992C626.483 199.887 624.418 202.518 621.995 204.796C611.842 214.418 596.981 217.969 583.416 219.001C575.903 219.589 568.35 219.401 560.877 218.439C559.271 218.232 559.287 220.754 560.877 220.949C574.938 222.777 589.868 222.081 603.449 217.834C617.814 213.339 632.618 202.998 633.732 186.641C634.528 174.977 628.697 163.99 625.263 153.166C624.777 151.625 622.343 152.284 622.835 153.837L622.851 153.849Z" fill="#9C5043"/>
<path d="M493.476 43.582C493.491 40.2762 494.354 36.964 495.329 33.8275C496.622 29.6429 498.373 25.6141 500.552 21.8147C504.24 15.4068 510.902 6.96017 519.371 8.61311C526.974 10.0967 530.684 17.8784 533.645 24.1953C534.332 25.6632 536.505 24.3835 535.822 22.9219C532.905 16.699 529.514 9.96808 522.852 7.08877C518.329 5.13472 513.389 5.83416 509.259 8.36219C505.388 10.7365 502.358 14.3216 499.893 18.0854C497.277 22.1479 495.162 26.5122 493.595 31.0831C492.202 35.0507 490.985 39.3446 490.963 43.582C490.963 45.2036 493.473 45.2068 493.473 43.582H493.476Z" fill="#9C5043"/>
<path d="M572.137 23.8154C577.036 17.8968 583.742 10.1183 592.323 11.2694C600.067 12.317 603.928 20.0516 606.334 26.6383C607.708 30.3833 608.74 34.2349 609.838 38.0646C610.286 39.6328 612.717 38.9585 612.268 37.3934C610.142 29.9755 608.25 21.9649 603.558 15.6699C601.212 12.5334 598.185 10.065 594.312 9.11146C589.83 8.00741 585.301 9.11146 581.433 11.5078C577.074 14.2114 573.592 18.1164 570.355 22.0339C569.33 23.2885 571.102 25.0669 572.137 23.8154Z" fill="#9C5043"/>
<path d="M509.322 212.768C509.57 214.415 510.476 215.976 511.439 217.303C512.604 218.929 514.008 220.368 515.605 221.572C516.928 222.563 518.497 223.407 520.181 223.498C522.245 223.611 524.33 222.607 525.858 221.302C526.778 220.506 527.526 219.531 528.057 218.436C528.588 217.342 528.891 216.151 528.947 214.935C529.02 213.317 526.501 213.32 526.438 214.935C526.272 218.652 522.107 222.3 518.525 220.449C516.793 219.555 515.335 218.16 514.109 216.667C513.039 215.368 512.02 213.806 511.762 212.112C511.662 211.435 510.822 211.074 510.213 211.231C509.492 211.422 509.231 212.112 509.335 212.78L509.322 212.768Z" fill="#9C5043"/>
<path d="M527.459 219.273C533.249 220.246 539.187 220.384 545.043 220.261C546.661 220.227 546.667 217.705 545.043 217.752C539.419 217.871 533.688 217.79 528.131 216.855C526.543 216.589 525.863 219.016 527.459 219.286V219.273Z" fill="#9C5043"/>
<path d="M544.749 214.089C543.566 217.445 544.244 221.447 546.753 224.032C549.45 226.833 553.553 226.767 556.63 224.612C558.735 223.138 560.243 221.017 561.303 218.7C561.462 218.409 561.504 218.069 561.42 217.749C561.336 217.428 561.133 217.153 560.852 216.978C560.309 216.664 559.412 216.808 559.127 217.429C557.665 220.622 554.108 225.107 550.131 223.389C546.919 221.999 546.126 217.784 547.195 214.757C547.738 213.223 545.313 212.561 544.764 214.086L544.749 214.089Z" fill="#9C5043"/>
<path d="M530.553 63.1569C529.207 59.3052 526.199 56.4134 521.077 56.0652C518.327 55.8675 515.609 56.7559 513.506 58.5399C512.958 58.8354 512.454 59.2071 512.01 59.644C508.008 63.5897 506.646 69.0159 507.663 74.5738C508.999 81.8818 516.987 88.8857 524.355 83.9833C530.515 79.9027 532.905 69.891 530.553 63.1569ZM526.522 68.6615C526.237 69.5742 525.305 69.9537 524.424 69.7561C523.219 69.49 521.995 69.3149 520.764 69.2323C520.682 70.9009 520.657 72.5758 520.704 74.2507C520.729 75.1917 519.835 75.8566 518.973 75.866C518.032 75.866 517.383 75.0097 517.358 74.1378C517.311 72.4974 517.336 70.8601 517.414 69.226C516.279 69.2922 515.149 69.4347 514.033 69.6526C513.601 69.7557 513.145 69.683 512.767 69.4504C512.388 69.2177 512.118 68.8442 512.015 68.4121C511.911 67.98 511.984 67.5245 512.217 67.146C512.449 66.7675 512.823 66.4969 513.255 66.3938C514.704 66.1094 516.171 65.9343 517.646 65.87C517.731 65.02 517.831 64.1668 517.96 63.3168C518.088 62.3759 518.703 61.711 519.688 61.7015C520.529 61.7015 521.426 62.5641 521.303 63.4329C521.181 64.3017 521.093 65.089 521.012 65.917C522.497 66.0273 523.972 66.2485 525.425 66.5788C526.309 66.7607 526.773 67.8522 526.522 68.6615Z" fill="#9C5043"/>
<path d="M582.07 55.1773C571.39 54.2928 565.534 69.508 569.449 77.9107C573.326 86.2319 585.564 86.555 590.67 79.2751C595.868 71.8667 592.546 56.0461 582.07 55.1773ZM586.351 69.7464C585.226 69.4971 584.083 69.3325 582.933 69.254C582.857 70.8222 582.835 72.3905 582.879 73.9368C582.904 74.8119 582.067 75.436 581.264 75.4454C580.383 75.4454 579.78 74.6456 579.755 73.8301C579.711 72.2995 579.737 70.772 579.809 69.2446C578.749 69.307 577.695 69.4412 576.653 69.646C576.448 69.7113 576.231 69.7334 576.017 69.7112C575.802 69.6889 575.595 69.6227 575.407 69.5167C575.22 69.4107 575.056 69.2671 574.926 69.095C574.796 68.9228 574.704 68.7258 574.654 68.5161C574.603 68.3065 574.597 68.0888 574.635 67.8766C574.673 67.6644 574.754 67.4622 574.873 67.2827C574.992 67.1033 575.147 66.9503 575.329 66.8335C575.51 66.7167 575.713 66.6384 575.926 66.6036C577.28 66.3364 578.652 66.1728 580.031 66.1143C580.11 65.3208 580.204 64.5241 580.314 63.7337C580.433 62.8618 581.007 62.2345 581.929 62.2251C582.713 62.2251 583.547 63.028 583.435 63.8404C583.322 64.6527 583.24 65.3835 583.162 66.1582C584.548 66.2588 585.926 66.4612 587.283 66.7636C588.111 66.9486 588.538 67.968 588.309 68.7208C588.176 69.1102 587.899 69.4338 587.535 69.6248C587.171 69.8157 586.747 69.8592 586.351 69.7464Z" fill="#9C5043"/>
<path d="M538.306 73.9591C538.494 77.1552 541.129 79.9404 544.372 80.0878C547.355 80.2258 550.451 77.8923 551.191 75.0098C551.596 73.4416 549.165 72.7672 548.76 74.3386C548.505 75.2129 547.976 75.9824 547.251 76.5342C547.018 76.7139 546.771 76.8744 546.511 77.014C546.31 77.1271 546.1 77.2246 545.884 77.3057C545.447 77.4858 544.977 77.5733 544.504 77.5629C542.65 77.5378 540.931 75.7626 540.825 73.9497C540.816 73.6197 540.681 73.3056 540.448 73.0722C540.214 72.8388 539.9 72.7038 539.57 72.6951C539.239 72.6991 538.922 72.8326 538.688 73.067C538.453 73.3014 538.32 73.6182 538.316 73.9497L538.306 73.9591Z" fill="#9C5043"/>
<path d="M549.67 75.3111C550.298 76.6473 551.471 77.7043 552.675 78.5229C553.935 79.4096 555.402 79.9582 556.934 80.1163C560.131 80.3703 563.145 77.7451 563.879 74.7466C564.265 73.1783 561.834 72.5008 561.448 74.0785C560.959 76.0796 558.939 77.8831 556.79 77.582C554.949 77.3216 552.685 75.813 551.847 74.0377C551.555 73.4104 550.674 73.263 550.122 73.5861C549.84 73.7605 549.635 74.037 549.551 74.3582C549.467 74.6794 549.51 75.0206 549.67 75.3111Z" fill="#9C5043"/>
<path d="M540.166 77.5723C534.997 83.701 534.351 93.5685 539.897 99.7035C546.207 106.679 558.032 105.036 562.868 97.1943C566.604 91.1408 564.123 84.551 561.89 78.4819C561.335 76.9732 558.898 77.6256 559.462 79.1499C561.175 83.7982 563.502 88.9829 561.658 93.9511C560.246 97.7714 556.74 100.472 552.828 101.353C551.005 101.779 549.105 101.756 547.292 101.288C545.478 100.82 543.805 99.9203 542.415 98.6653C539.997 96.4133 538.702 93.1921 538.529 89.9207C538.328 86.1318 539.47 82.2582 541.939 79.3413C542.98 78.1086 541.205 76.3177 540.157 77.5597L540.166 77.5723Z" fill="#9C5043"/>
<path d="M417.256 151.101C421.744 149.734 422.961 144.718 423.557 140.751C424.153 136.783 424.498 133.455 424.087 129.459C425.307 133.646 425.797 137.166 428.215 140.795C430.633 144.424 434.438 147.381 438.788 147.714C436.067 150.076 433.866 152.977 432.324 156.233C430.782 159.49 429.933 163.031 429.83 166.633C426.675 160.63 423.131 154.238 417.018 151.299" fill="#FDE41B"/>
<path d="M429.761 106.218C432.687 105.243 433.525 102.809 434.124 100.598C434.723 98.3865 434.808 96.078 434.892 93.7915C435.299 96.3649 436.385 98.7829 438.04 100.796C439.694 102.808 441.856 104.343 444.302 105.24C440.645 106.774 438.901 110.885 437.665 114.649C437.242 110.547 433.813 106.943 429.736 106.322" fill="#FDE41B"/>
<path d="M629.603 36.5251C638.624 35.7128 637.548 26.1527 638.95 19.7197C638.524 27.0278 642.767 34.4017 649.301 37.7045C647.846 37.7393 646.412 38.066 645.085 38.6652C643.759 39.2644 642.566 40.124 641.578 41.1928C640.59 42.2617 639.826 43.5182 639.333 44.8877C638.84 46.2571 638.626 47.7118 638.706 49.1653C638.549 46.2671 638.737 43.6136 637.034 40.9884C635.237 38.2189 632.26 37.3469 629.293 36.3495" fill="#FDE41B"/>
<path d="M615.652 11.5612C617.276 10.1205 618.557 8.33406 619.399 6.3333C620.241 4.33254 620.625 2.16837 620.52 0C620.664 2.36394 621.449 4.64414 622.79 6.59623C624.131 8.54832 625.978 10.0987 628.133 11.0813C626.756 11.7086 625.253 12.0411 623.961 12.8189C622.669 13.5968 621.58 15.0145 621.797 16.498C621.167 15.2623 620.292 14.1678 619.226 13.2813C618.159 12.3948 616.923 11.7348 615.593 11.3416" fill="#FDE41B"/>
<path d="M410.813 108.758C411.243 111.581 411.697 116.408 412.13 119.25L410.813 108.758Z" fill="#FDE41B"/>
<path d="M409.859 109.019C410.382 112.507 410.649 116.026 411.173 119.514C411.254 120.044 411.919 120.336 412.393 120.204C412.642 120.128 412.852 119.96 412.981 119.733C413.109 119.507 413.146 119.24 413.083 118.987C412.559 115.502 412.293 111.98 411.769 108.495C411.687 107.965 411.019 107.674 410.549 107.802C410.299 107.877 410.088 108.046 409.96 108.272C409.831 108.499 409.795 108.766 409.859 109.019Z" fill="#EE9800"/>
<path d="M407.178 114.231C410.124 113.632 413.117 113.288 416.123 113.203L407.178 114.231Z" fill="#FDE41B"/>
<path d="M407.435 115.194C410.295 114.62 413.2 114.288 416.116 114.203C417.387 114.166 417.393 112.187 416.116 112.224C413.023 112.318 409.942 112.673 406.908 113.284C406.661 113.36 406.454 113.529 406.329 113.755C406.205 113.981 406.174 114.247 406.243 114.495C406.311 114.744 406.474 114.956 406.697 115.087C406.919 115.217 407.184 115.256 407.435 115.194Z" fill="#EE9800"/>
<path d="M454.225 141.196C455.018 146.689 457.766 151.711 461.963 155.342C462.215 155.582 462.549 155.716 462.896 155.716C463.244 155.716 463.578 155.582 463.829 155.342C464.306 154.865 464.372 153.943 463.829 153.476C459.972 150.15 457.464 145.53 456.775 140.484C456.675 139.779 455.775 139.393 455.151 139.562C454.389 139.772 454.128 140.478 454.229 141.187L454.225 141.196Z" fill="#9C5043"/>
<path d="M453.426 151.484L453.539 151.628C453.426 151.481 453.413 151.465 453.501 151.578C453.589 151.691 453.649 151.775 453.718 151.892C453.862 152.092 454 152.293 454.132 152.5C454.394 152.912 454.635 153.337 454.853 153.773C454.963 153.993 455.063 154.216 455.167 154.442C455.226 154.573 455.217 154.554 455.142 154.379C455.167 154.435 455.189 154.492 455.211 154.551C455.258 154.664 455.302 154.777 455.342 154.893C455.516 155.348 455.667 155.812 455.794 156.283C455.887 156.62 456.111 156.907 456.415 157.08C456.72 157.253 457.081 157.298 457.419 157.205C457.756 157.112 458.043 156.888 458.216 156.583C458.389 156.279 458.434 155.918 458.341 155.58C457.766 153.4 456.732 151.368 455.308 149.621C454.875 149.078 453.887 149.135 453.442 149.621C453.318 149.744 453.22 149.891 453.153 150.052C453.086 150.214 453.052 150.387 453.053 150.562C453.071 150.91 453.208 151.243 453.442 151.503L453.426 151.484Z" fill="#9C5043"/>
<path d="M447.106 183.376C447.084 177.73 448.336 172.561 451.607 167.916C455.106 162.929 459.885 158.978 465.442 156.48C468.615 155.074 471.993 154.189 475.448 153.858C477.123 153.698 477.141 151.057 475.448 151.217C468.827 151.835 462.512 154.292 457.215 158.312C452.31 162.076 448 167.22 445.949 173.104C444.801 176.394 444.45 179.907 444.465 183.376C444.465 185.073 447.113 185.076 447.106 183.376Z" fill="#9C5043"/>
<path d="M443.972 191.923C443.928 197.196 444.759 202.587 447.34 207.248C449.821 211.727 453.805 215.011 458.444 217.081C464.34 219.713 470.814 220.569 477.222 220.644C482.579 220.704 487.902 220.359 493.058 218.819C497.725 217.423 503.346 215.055 505.244 210.171C505.871 208.603 503.305 207.9 502.697 209.469C501.282 213.104 496.49 214.954 493.099 216.055C488.422 217.555 483.671 217.984 478.784 218.019C468.722 218.088 456.314 216.366 450.361 207.163C447.441 202.647 446.569 197.23 446.613 191.936C446.613 190.236 443.988 190.232 443.972 191.936V191.923Z" fill="#9C5043"/>
<path d="M488.982 174.315C489.782 174.559 490.795 175.064 490.989 175.964C491.231 177.059 490.331 178.031 489.493 178.59C487.279 180.01 484.706 180.771 482.075 180.785C480.601 180.804 478.346 179.813 478.986 177.991C479.532 176.422 481.454 175.419 482.988 174.854C484.87 174.18 487.131 173.791 488.982 174.293C490.625 174.738 491.325 172.191 489.684 171.749C487.235 171.084 484.456 171.498 482.11 172.376C479.704 173.273 476.919 174.926 476.342 177.652C475.664 180.864 478.613 183.197 481.552 183.404C483.346 183.48 485.139 183.234 486.846 182.676C488.547 182.194 490.143 181.397 491.551 180.327C493.047 179.12 494.079 177.109 493.502 175.168C492.978 173.402 491.363 172.285 489.675 171.771C488.057 171.272 487.357 173.822 488.982 174.315Z" fill="#9C5043"/>
<path d="M470.043 171.743C463.886 171.743 463.121 181.347 469.34 181.347C475.497 181.347 476.26 171.743 470.043 171.743ZM467.816 176.071C466.122 176.071 465.934 173.433 467.644 173.433C469.353 173.433 469.519 176.071 467.816 176.071Z" fill="#9C5043"/>
<path d="M492.407 165.626C492.359 165.594 492.313 165.56 492.269 165.523C491.915 166.3 491.693 167.129 491.61 167.979C491.702 167.824 491.826 167.692 491.974 167.59L492.287 167.433C492.358 167.412 492.431 167.397 492.504 167.389L492.686 167.298C492.902 167.226 493.133 167.21 493.357 167.254L493.671 167.361C493.981 167.528 494.221 167.8 494.348 168.129C494.445 168.458 494.423 168.81 494.285 169.123L494.176 169.359C494.157 169.393 494.141 169.425 494.119 169.459C494.053 169.584 493.974 169.701 493.884 169.81C493.83 169.867 493.771 169.918 493.708 169.964C493.689 169.995 493.686 170.036 493.661 170.064C493.612 170.171 493.533 170.261 493.435 170.325C493.357 170.415 493.257 170.484 493.144 170.522C492.995 170.613 492.825 170.663 492.651 170.667L492.312 170.645L491.999 170.538L491.751 170.375C492.316 172.784 494.169 174.747 497.459 174.747C498.841 174.77 500.196 174.362 501.336 173.58C501.371 172.74 501.421 171.899 501.506 171.071C498.419 169.343 495.389 167.521 492.407 165.626Z" fill="#9C5043"/>
<path d="M450.229 207.361C445.242 203.133 441.328 197.293 441.466 190.565C441.509 187.909 441.912 185.271 442.664 182.724C442.964 181.635 443.409 180.592 443.987 179.622C444.301 179.136 444.906 178.446 445.242 178.402C446.904 178.188 446.926 175.547 445.242 175.761C441.114 176.285 439.91 182.065 439.327 185.409C438.886 187.808 438.729 190.25 438.859 192.685C439.118 195.665 440.042 198.548 441.563 201.123C443.336 204.201 445.633 206.946 448.35 209.234C449.639 210.325 451.518 208.468 450.232 207.352L450.229 207.361Z" fill="#9C5043"/>
<path d="M643.953 5.44854C644.289 7.69079 644.357 9.965 644.157 12.2234C644.158 12.4852 644.263 12.7359 644.448 12.9213C644.632 13.1068 644.883 13.2121 645.145 13.2145C645.406 13.2089 645.655 13.1027 645.839 12.918C646.024 12.7334 646.13 12.4845 646.136 12.2234C646.337 9.7873 646.245 7.3359 645.863 4.9216C645.781 4.39153 645.119 4.09984 644.646 4.22844C644.396 4.30435 644.185 4.47322 644.056 4.70023C643.927 4.92724 643.89 5.19509 643.953 5.44854Z" fill="#EE9800"/>
<path d="M642.307 10.3566C644.415 9.99916 646.561 9.92007 648.69 10.1214C648.952 10.1197 649.203 10.0148 649.389 9.82924C649.574 9.64372 649.679 9.39258 649.681 9.13022C649.675 8.86941 649.569 8.6209 649.384 8.43673C649.199 8.25256 648.95 8.14702 648.69 8.14222C646.386 7.93645 644.066 8.03664 641.789 8.44019C641.538 8.51195 641.324 8.67975 641.195 8.90741C641.066 9.13507 641.032 9.40434 641.099 9.65715C641.174 9.90716 641.342 10.1188 641.569 10.2479C641.795 10.377 642.063 10.4137 642.316 10.3503L642.307 10.3566Z" fill="#EE9800"/>
<path d="M626.382 204.341C633.728 205.47 641.397 203.864 647.551 199.636C653.484 195.522 657.697 189.37 659.388 182.351C660.937 175.868 660.617 166.794 653.968 163.184C651.22 161.691 647.645 161.342 644.907 163.058C642.168 164.774 641.03 167.892 640.606 170.975C640.032 175.175 640.196 179.368 639.252 183.521C638.458 187.015 636.485 193.15 631.686 192.018C630.118 191.647 629.434 194.075 631.015 194.448C634.318 195.226 637.423 193.426 639.226 190.713C641.224 187.714 641.908 183.778 642.363 180.274C642.802 176.997 642.586 173.625 643.222 170.379C643.765 167.616 645.198 164.893 648.26 164.46C651.321 164.027 654.294 165.856 655.828 168.415C657.572 171.326 657.835 174.883 657.528 178.192C656.847 184.877 653.692 191.067 648.683 195.546C642.89 200.721 634.7 203.074 627.041 201.894C625.454 201.65 624.77 204.09 626.37 204.322L626.382 204.341Z" fill="#9C5043"/>
<path d="M653.35 156.192C653.35 156.192 653.635 156.314 653.457 156.236L653.56 156.283C653.701 156.346 653.839 156.412 653.977 156.481C654.269 156.628 654.554 156.794 654.83 156.951C655.106 157.108 655.351 157.284 655.605 157.462L655.79 157.6C656.047 157.786 655.583 157.431 655.831 157.629L656.188 157.924C656.659 158.325 657.097 158.762 657.5 159.231C657.6 159.348 657.697 159.467 657.794 159.589C657.995 159.834 657.638 159.369 657.826 159.627C657.87 159.689 657.917 159.749 657.964 159.812C658.152 160.078 658.328 160.348 658.497 160.627C658.581 160.77 658.692 160.895 658.823 160.995C658.955 161.095 659.106 161.168 659.266 161.21C659.426 161.252 659.593 161.262 659.757 161.24C659.921 161.217 660.079 161.162 660.222 161.079C660.365 160.995 660.49 160.884 660.59 160.752C660.69 160.62 660.763 160.47 660.805 160.31C660.847 160.15 660.857 159.983 660.834 159.819C660.812 159.655 660.757 159.497 660.674 159.354C659.121 156.821 656.786 154.862 654.021 153.774C653.394 153.529 652.613 154.044 652.472 154.655C652.392 154.977 652.44 155.317 652.603 155.606C652.767 155.894 653.036 156.108 653.353 156.205L653.35 156.192Z" fill="#9C5043"/>
<path d="M657.659 150.766L657.685 150.747L657.427 150.945L657.484 150.913L657.17 151.039C657.193 151.03 657.218 151.023 657.242 151.02L656.91 151.064C656.938 151.059 656.966 151.059 656.994 151.064L656.659 151.017L656.762 151.045L656.449 150.92C656.483 150.932 656.514 150.95 656.543 150.973L656.289 150.775C656.318 150.797 656.343 150.824 656.364 150.854L656.17 150.597C656.186 150.62 656.2 150.645 656.21 150.672L656.085 150.358C656.094 150.381 656.101 150.406 656.104 150.43C656.104 150.317 656.072 150.208 656.06 150.095V150.161C656.06 150.048 656.088 149.935 656.104 149.825C656.101 149.85 656.094 149.874 656.085 149.897L656.21 149.583C656.201 149.604 656.189 149.624 656.176 149.643L656.373 149.389C656.358 149.406 656.341 149.422 656.323 149.436L656.577 149.238C656.555 149.258 656.529 149.273 656.502 149.286L656.816 149.157C656.782 149.173 656.746 149.182 656.709 149.185L657.045 149.141C657.005 149.148 656.965 149.148 656.925 149.141L657.261 149.185C657.229 149.182 657.197 149.173 657.167 149.16L657.481 149.289C657.456 149.277 657.431 149.263 657.408 149.248L657.666 149.445L657.615 149.398L657.813 149.652C657.798 149.633 657.785 149.612 657.775 149.59L657.904 149.903C657.868 149.744 657.79 149.596 657.678 149.477C657.589 149.345 657.468 149.237 657.327 149.163C657.027 149.009 656.683 148.965 656.355 149.038L656.041 149.163C655.855 149.274 655.7 149.429 655.589 149.615L655.461 149.928C655.401 150.148 655.401 150.38 655.461 150.6C655.501 150.703 655.549 150.813 655.592 150.913V150.935L655.614 150.97L655.715 151.102L655.818 151.233L655.846 151.262C655.897 151.302 656.054 151.425 656.107 151.459H656.126L656.163 151.478C656.254 151.522 656.38 151.572 656.477 151.61H656.499H656.54C656.676 151.64 656.814 151.658 656.954 151.663H657.016C657.129 151.663 657.252 151.635 657.368 151.616C657.396 151.61 657.423 151.602 657.449 151.591C657.55 151.553 657.663 151.506 657.763 151.459H657.785L657.819 151.44C657.91 151.378 657.996 151.311 658.08 151.24L658.108 151.211C658.201 151.118 658.281 151.012 658.346 150.898C658.402 150.791 658.45 150.68 658.487 150.565C658.489 150.551 658.489 150.536 658.487 150.521C658.487 150.465 658.509 150.374 658.513 150.346C658.516 150.317 658.531 150.226 658.534 150.167C658.534 150.167 658.534 150.167 658.534 150.145C658.534 150.123 658.534 150.145 658.534 150.126C658.534 150.029 658.506 149.881 658.487 149.784C658.49 149.77 658.49 149.755 658.487 149.74C658.487 149.74 658.487 149.74 658.487 149.721C658.447 149.618 658.4 149.505 658.353 149.408C658.346 149.394 658.339 149.38 658.331 149.367C658.265 149.276 658.193 149.182 658.124 149.097C658.103 149.073 658.08 149.051 658.055 149.031C657.967 148.962 657.876 148.887 657.785 148.824H657.766L657.725 148.802C657.622 148.752 657.512 148.708 657.412 148.664H657.387H657.333H657.308C657.195 148.646 657.073 148.627 656.957 148.617H656.894C656.791 148.617 656.653 148.646 656.552 148.661H656.527H656.477C656.414 148.686 656.235 148.759 656.163 148.79H656.141C656.063 148.843 655.953 148.931 655.881 148.991L655.856 149.009C655.736 149.121 655.646 149.261 655.596 149.417C655.518 149.566 655.481 149.733 655.489 149.9C655.48 150.069 655.517 150.237 655.596 150.386C655.646 150.542 655.736 150.681 655.856 150.791L656.113 150.989C656.303 151.102 656.52 151.162 656.74 151.161L657.076 151.117C657.285 151.062 657.476 150.954 657.631 150.804L657.659 150.766Z" fill="#9C5043"/>
<path d="M415.621 180.393C411.431 181.648 407.253 182.934 402.981 183.875C398.819 184.791 394.582 185.339 390.351 184.58C386.207 183.834 382.164 182.071 379.294 178.935C376.763 176.15 374.903 171.181 377.629 167.894C380.496 164.444 386.057 165.329 389.899 166.103C390.165 166.167 390.445 166.143 390.696 166.035C390.948 165.927 391.158 165.742 391.295 165.505C391.433 165.269 391.491 164.994 391.46 164.722C391.429 164.45 391.312 164.196 391.125 163.996C388.491 160.997 388.174 156.324 390.297 152.961C392.421 149.599 396.787 147.855 400.629 148.689C402.576 149.145 404.36 150.128 405.785 151.531C407.21 152.933 408.222 154.701 408.709 156.64C409.336 159.15 409.091 161.797 408.997 164.359C408.902 166.542 409.017 168.729 409.342 170.89C410.045 175.343 411.971 179.728 415.515 182.639C416.769 183.658 418.551 181.886 417.296 180.857C413.705 177.906 412.033 173.405 411.607 168.876C411.111 163.616 412.592 158.115 410.092 153.193C408.069 149.204 403.988 146.35 399.512 146.011C397.28 145.866 395.05 146.315 393.049 147.314C391.047 148.312 389.347 149.824 388.121 151.694C385.37 156.051 385.978 161.957 389.344 165.783L390.57 163.679C386.377 162.835 381.179 162.111 377.431 164.717C373.413 167.515 373.078 172.643 374.922 176.843C376.892 181.306 381.195 184.37 385.677 185.967C390.203 187.595 395.008 187.767 399.726 187.061C405.371 186.215 410.832 184.464 416.283 182.843C417.836 182.382 417.174 179.948 415.615 180.412L415.621 180.393Z" fill="#9C5043"/>
<defs>
<filter id="filter0_i_2_5" x="23.0723" y="70.5076" width="39.9302" height="35.9346" filterUnits="userSpaceOnUse" color-interpolation-filters="sRGB">
<feFlood flood-opacity="0" result="BackgroundImageFix"/>
<feBlend mode="normal" in="SourceGraphic" in2="BackgroundImageFix" result="shape"/>
<feColorMatrix in="SourceAlpha" type="matrix" values="0 0 0 0 0 0 0 0 0 0 0 0 0 0 0 0 0 0 127 0" result="hardAlpha"/>
<feOffset dx="4.07386" dy="-6.11078"/>
<feComposite in2="hardAlpha" operator="arithmetic" k2="-1" k3="1"/>
<feColorMatrix type="matrix" values="0 0 0 0 0.825 0 0 0 0 0.693945 0 0 0 0 0.615313 0 0 0 1 0"/>
<feBlend mode="normal" in2="shape" result="effect1_innerShadow_2_5"/>
</filter>
<filter id="filter1_i_2_5" x="1007.11" y="72.064" width="40.4087" height="38.3259" filterUnits="userSpaceOnUse" color-interpolation-filters="sRGB">
<feFlood flood-opacity="0" result="BackgroundImageFix"/>
<feBlend mode="normal" in="SourceGraphic" in2="BackgroundImageFix" result="shape"/>
<feColorMatrix in="SourceAlpha" type="matrix" values="0 0 0 0 0 0 0 0 0 0 0 0 0 0 0 0 0 0 127 0" result="hardAlpha"/>
<feOffset dx="4.07386" dy="-6.11078"/>
<feComposite in2="hardAlpha" operator="arithmetic" k2="-1" k3="1"/>
<feColorMatrix type="matrix" values="0 0 0 0 0.825 0 0 0 0 0.693945 0 0 0 0 0.615313 0 0 0 1 0"/>
<feBlend mode="normal" in2="shape" result="effect1_innerShadow_2_5"/>
</filter>
<linearGradient id="paint0_linear_2_5" x1="40.7142" y1="70.5193" x2="43.0374" y2="105.101" gradientUnits="userSpaceOnUse">
<stop stop-color="white"/>
<stop offset="1" stop-color="white"/>
</linearGradient>
<linearGradient id="paint1_linear_2_5" x1="1032.99" y1="72.1185" x2="1027.31" y2="107.114" gradientUnits="userSpaceOnUse">
<stop stop-color="white"/>
<stop offset="1" stop-color="white"/>
</linearGradient>
</defs>
</svg>
